<?xml version="1.0" encoding="UTF-8" standalone="no"?>
<!-- Created with Inkscape (http://www.inkscape.org/) -->

<svg
   xmlns:dc="http://purl.org/dc/elements/1.1/"
   xmlns:cc="http://creativecommons.org/ns#"
   xmlns:rdf="http://www.w3.org/1999/02/22-rdf-syntax-ns#"
   xmlns:svg="http://www.w3.org/2000/svg"
   xmlns="http://www.w3.org/2000/svg"
   xmlns:xlink="http://www.w3.org/1999/xlink"
   xmlns:sodipodi="http://sodipodi.sourceforge.net/DTD/sodipodi-0.dtd"
   xmlns:inkscape="http://www.inkscape.org/namespaces/inkscape"
   width="378.89133mm"
   height="232.18138mm"
   viewBox="0 0 378.89133 232.18138"
   version="1.1"
   id="svg5160"
   inkscape:version="0.92.2 (unknown)"
   sodipodi:docname="jam-v-1.0.svg">
  <defs
     id="defs5154">
    <filter
       style="color-interpolation-filters:sRGB"
       inkscape:label="Drop Shadow"
       id="filter5140">
      <feFlood
         flood-opacity="0.196078"
         flood-color="rgb(0,0,0)"
         result="flood"
         id="feFlood5130" />
      <feComposite
         in="flood"
         in2="SourceGraphic"
         operator="in"
         result="composite1"
         id="feComposite5132" />
      <feGaussianBlur
         in="composite1"
         stdDeviation="32.1"
         result="blur"
         id="feGaussianBlur5134" />
      <feOffset
         dx="4.57967e-15"
         dy="42.8947"
         result="offset"
         id="feOffset5136" />
      <feComposite
         in="SourceGraphic"
         in2="offset"
         operator="over"
         result="composite2"
         id="feComposite5138" />
    </filter>
    <linearGradient
       inkscape:collect="always"
       xlink:href="#linearGradient4383"
       id="linearGradient4898"
       gradientUnits="userSpaceOnUse"
       x1="3242.2029"
       y1="-698.29321"
       x2="3454.3352"
       y2="-696.08356" />
    <linearGradient
       id="linearGradient4383"
       inkscape:collect="always">
      <stop
         id="stop4379"
         offset="0"
         style="stop-color:#4f00a0;stop-opacity:1" />
      <stop
         id="stop4381"
         offset="1"
         style="stop-color:#8f00f9;stop-opacity:1" />
    </linearGradient>
    <linearGradient
       inkscape:collect="always"
       xlink:href="#linearGradient4383"
       id="linearGradient4900"
       gradientUnits="userSpaceOnUse"
       x1="3239.3838"
       y1="-364.94287"
       x2="3665.937"
       y2="-364.94287" />
    <inkscape:path-effect
       bendpath3-nodetypes="cc"
       bendpath1-nodetypes="cc"
       bendpath4="m 3242.4918,-414.48207 v 72"
       bendpath3="m 3242.4918,-342.48207 c 169.5289,45.69743 376.9309,19.91794 428.6719,0"
       bendpath2="m 3671.1637,-414.48207 v 72"
       bendpath1="m 3242.4918,-414.48207 c 159.3286,34.89693 295.2039,27.34909 428.6719,0"
       xx="false"
       yy="true"
       is_visible="true"
       id="path-effect4883"
       effect="envelope" />
    <linearGradient
       inkscape:collect="always"
       xlink:href="#linearGradient4181"
       id="linearGradient4839"
       gradientUnits="userSpaceOnUse"
       x1="3078.0349"
       y1="-235.13701"
       x2="3016.8169"
       y2="-463.60556" />
    <linearGradient
       inkscape:collect="always"
       id="linearGradient4181">
      <stop
         style="stop-color:#000000;stop-opacity:0.30493274"
         offset="0"
         id="stop4177" />
      <stop
         style="stop-color:#0b0b0b;stop-opacity:0"
         offset="1"
         id="stop4179" />
    </linearGradient>
    <linearGradient
       inkscape:collect="always"
       xlink:href="#linearGradient4671"
       id="linearGradient4841"
       gradientUnits="userSpaceOnUse"
       x1="3138.3813"
       y1="-412.52313"
       x2="3809.8958"
       y2="-412.52313"
       spreadMethod="pad" />
    <linearGradient
       inkscape:collect="always"
       id="linearGradient4671">
      <stop
         style="stop-color:#b90032;stop-opacity:1"
         offset="0"
         id="stop4667" />
      <stop
         id="stop4673"
         offset="0.68129218"
         style="stop-color:#df89a0;stop-opacity:0.97647059" />
      <stop
         style="stop-color:#bd5762;stop-opacity:1"
         offset="0.97327453"
         id="stop4675" />
      <stop
         style="stop-color:#bd5762;stop-opacity:1"
         offset="1"
         id="stop4669" />
    </linearGradient>
    <linearGradient
       inkscape:collect="always"
       xlink:href="#linearGradient4703"
       id="linearGradient4845"
       gradientUnits="userSpaceOnUse"
       x1="3130.5872"
       y1="-402.52313"
       x2="3739.8958"
       y2="-406.52313" />
    <linearGradient
       id="linearGradient4703"
       inkscape:collect="always">
      <stop
         id="stop4699"
         offset="0"
         style="stop-color:#797979;stop-opacity:1" />
      <stop
         style="stop-color:#d9d9d9;stop-opacity:1"
         offset="0.35334128"
         id="stop4707" />
      <stop
         style="stop-color:#f8f8f8;stop-opacity:1"
         offset="0.78754121"
         id="stop4705" />
      <stop
         id="stop4701"
         offset="1"
         style="stop-color:#d4d4d4;stop-opacity:1" />
    </linearGradient>
    <linearGradient
       inkscape:collect="always"
       xlink:href="#linearGradient4721"
       id="linearGradient4847"
       gradientUnits="userSpaceOnUse"
       x1="3344.4758"
       y1="-655.46436"
       x2="3612.302"
       y2="-653.90186"
       spreadMethod="reflect" />
    <linearGradient
       id="linearGradient4721"
       inkscape:collect="always">
      <stop
         id="stop4717"
         offset="0"
         style="stop-color:#eb6531;stop-opacity:1" />
      <stop
         id="stop4719"
         offset="1"
         style="stop-color:#ff9b5d;stop-opacity:1" />
    </linearGradient>
    <linearGradient
       inkscape:collect="always"
       xlink:href="#linearGradient4727"
       id="linearGradient4849"
       gradientUnits="userSpaceOnUse"
       x1="3687.179"
       y1="-756.12366"
       x2="3325.429"
       y2="-756.12366" />
    <linearGradient
       inkscape:collect="always"
       id="linearGradient4727">
      <stop
         style="stop-color:#eb6531;stop-opacity:1"
         offset="0"
         id="stop4723" />
      <stop
         id="stop4729"
         offset="0.30096751"
         style="stop-color:#f5b59c;stop-opacity:1" />
      <stop
         style="stop-color:#ff9b5d;stop-opacity:1"
         offset="1"
         id="stop4725" />
    </linearGradient>
    <linearGradient
       inkscape:collect="always"
       xlink:href="#linearGradient4721"
       id="linearGradient4857"
       gradientUnits="userSpaceOnUse"
       x1="3423.7849"
       y1="-819.07452"
       x2="3479.5974"
       y2="-938.26202" />
    <inkscape:path-effect
       bendpath3-nodetypes="cc"
       bendpath1-nodetypes="cc"
       bendpath4="m 3242.4918,-414.48207 v 72"
       bendpath3="m 3242.4918,-342.48207 c 169.5289,45.69743 376.9309,19.91794 428.6719,0"
       bendpath2="m 3671.1637,-414.48207 v 72"
       bendpath1="m 3242.4918,-414.48207 c 159.3286,34.89693 295.2039,27.34909 428.6719,0"
       xx="false"
       yy="true"
       is_visible="true"
       id="path-effect4823"
       effect="envelope" />
    <inkscape:path-effect
       bendpath3-nodetypes="cc"
       bendpath1-nodetypes="cc"
       bendpath4="m 3242.4918,-414.48207 v 72"
       bendpath3="m 3242.4918,-342.48207 c 169.5289,45.69743 376.9309,19.91794 428.6719,0"
       bendpath2="m 3671.1637,-414.48207 v 72"
       bendpath1="m 3242.4918,-414.48207 c 159.3286,34.89693 295.2039,27.34909 428.6719,0"
       xx="false"
       yy="true"
       is_visible="true"
       id="path-effect4755"
       effect="envelope" />
    <linearGradient
       gradientTransform="matrix(0.12254393,0,0,0.12254393,-462.1628,238.70058)"
       inkscape:collect="always"
       xlink:href="#linearGradient4383"
       id="linearGradient4715"
       x1="3239.3838"
       y1="-364.94287"
       x2="3665.937"
       y2="-364.94287"
       gradientUnits="userSpaceOnUse" />
    <inkscape:path-effect
       effect="envelope"
       id="path-effect1089"
       is_visible="true"
       yy="true"
       xx="false"
       bendpath1="m -64.815113,187.90831 c 19.52476,4.27642 36.17545,3.35147 52.53115,0"
       bendpath2="m -12.283963,187.90831 v 8.82317"
       bendpath3="m -64.815113,196.73148 c 20.77474,5.59995 46.1906,2.44083 52.53115,0"
       bendpath4="m -64.815113,187.90831 v 8.82317"
       bendpath1-nodetypes="cc"
       bendpath3-nodetypes="cc" />
    <linearGradient
       inkscape:collect="always"
       xlink:href="#linearGradient4297"
       id="linearGradient4299"
       x1="3401.4724"
       y1="-927.32452"
       x2="3360.8474"
       y2="-744.51202"
       gradientUnits="userSpaceOnUse" />
    <linearGradient
       inkscape:collect="always"
       id="linearGradient4297">
      <stop
         style="stop-color:#000000;stop-opacity:0.35426009"
         offset="0"
         id="stop4293" />
      <stop
         style="stop-color:#350707;stop-opacity:0"
         offset="1"
         id="stop4295" />
    </linearGradient>
    <linearGradient
       gradientTransform="matrix(0.12254393,0,0,0.12254393,-462.1628,238.70058)"
       inkscape:collect="always"
       xlink:href="#linearGradient4383"
       id="linearGradient4377"
       gradientUnits="userSpaceOnUse"
       x1="3242.2029"
       y1="-698.29321"
       x2="3454.3352"
       y2="-696.08356" />
    <linearGradient
       inkscape:collect="always"
       xlink:href="#linearGradient4297"
       id="linearGradient6553"
       gradientUnits="userSpaceOnUse"
       x1="3401.4724"
       y1="-927.32452"
       x2="3360.8474"
       y2="-744.51202" />
    <linearGradient
       inkscape:collect="always"
       xlink:href="#linearGradient4297"
       id="linearGradient6555"
       gradientUnits="userSpaceOnUse"
       x1="3401.4724"
       y1="-927.32452"
       x2="3360.8474"
       y2="-744.51202" />
    <linearGradient
       inkscape:collect="always"
       xlink:href="#linearGradient4181"
       id="linearGradient6557"
       gradientUnits="userSpaceOnUse"
       x1="3078.0349"
       y1="-235.13701"
       x2="3016.8169"
       y2="-463.60556" />
    <linearGradient
       inkscape:collect="always"
       xlink:href="#linearGradient4671"
       id="linearGradient6559"
       gradientUnits="userSpaceOnUse"
       x1="3138.3813"
       y1="-412.52313"
       x2="3809.8958"
       y2="-412.52313"
       spreadMethod="pad" />
    <linearGradient
       inkscape:collect="always"
       xlink:href="#linearGradient4721"
       id="linearGradient6561"
       gradientUnits="userSpaceOnUse"
       x1="3344.4758"
       y1="-655.46436"
       x2="3612.302"
       y2="-653.90186"
       spreadMethod="reflect" />
    <linearGradient
       inkscape:collect="always"
       xlink:href="#linearGradient4727"
       id="linearGradient6563"
       gradientUnits="userSpaceOnUse"
       x1="3687.179"
       y1="-756.12366"
       x2="3325.429"
       y2="-756.12366" />
    <linearGradient
       inkscape:collect="always"
       xlink:href="#linearGradient4383"
       id="linearGradient6565"
       gradientUnits="userSpaceOnUse"
       x1="3242.2029"
       y1="-698.29321"
       x2="3454.3352"
       y2="-696.08356" />
    <linearGradient
       inkscape:collect="always"
       xlink:href="#linearGradient4703"
       id="linearGradient6567"
       gradientUnits="userSpaceOnUse"
       x1="3130.5872"
       y1="-402.52313"
       x2="3739.8958"
       y2="-406.52313" />
    <linearGradient
       inkscape:collect="always"
       xlink:href="#linearGradient4703"
       id="linearGradient6569"
       gradientUnits="userSpaceOnUse"
       x1="3130.5872"
       y1="-402.52313"
       x2="3739.8958"
       y2="-406.52313" />
    <linearGradient
       inkscape:collect="always"
       xlink:href="#linearGradient4721"
       id="linearGradient6571"
       gradientUnits="userSpaceOnUse"
       x1="3423.7849"
       y1="-819.07452"
       x2="3479.5974"
       y2="-938.26202" />
    <linearGradient
       inkscape:collect="always"
       xlink:href="#linearGradient4721"
       id="linearGradient6573"
       gradientUnits="userSpaceOnUse"
       x1="3423.7849"
       y1="-819.07452"
       x2="3479.5974"
       y2="-938.26202" />
    <linearGradient
       inkscape:collect="always"
       xlink:href="#linearGradient4721"
       id="linearGradient6575"
       gradientUnits="userSpaceOnUse"
       x1="3423.7849"
       y1="-819.07452"
       x2="3479.5974"
       y2="-938.26202" />
    <linearGradient
       inkscape:collect="always"
       xlink:href="#linearGradient4383"
       id="linearGradient6577"
       gradientUnits="userSpaceOnUse"
       x1="3239.3838"
       y1="-364.94287"
       x2="3665.937"
       y2="-364.94287" />
    <linearGradient
       inkscape:collect="always"
       xlink:href="#linearGradient4703"
       id="linearGradient6579"
       gradientUnits="userSpaceOnUse"
       x1="3130.5872"
       y1="-402.52313"
       x2="3739.8958"
       y2="-406.52313" />
    <linearGradient
       inkscape:collect="always"
       xlink:href="#linearGradient4383"
       id="linearGradient6581"
       gradientUnits="userSpaceOnUse"
       x1="3242.2029"
       y1="-698.29321"
       x2="3454.3352"
       y2="-696.08356" />
    <linearGradient
       inkscape:collect="always"
       xlink:href="#linearGradient4721"
       id="linearGradient6583"
       gradientUnits="userSpaceOnUse"
       x1="3423.7849"
       y1="-819.07452"
       x2="3479.5974"
       y2="-938.26202" />
    <linearGradient
       inkscape:collect="always"
       xlink:href="#linearGradient4721"
       id="linearGradient6585"
       gradientUnits="userSpaceOnUse"
       x1="3423.7849"
       y1="-819.07452"
       x2="3479.5974"
       y2="-938.26202" />
    <linearGradient
       inkscape:collect="always"
       xlink:href="#linearGradient4383"
       id="linearGradient6587"
       gradientUnits="userSpaceOnUse"
       x1="3239.3838"
       y1="-364.94287"
       x2="3665.937"
       y2="-364.94287" />
  </defs>
  <sodipodi:namedview
     id="base"
     pagecolor="#ffffff"
     bordercolor="#666666"
     borderopacity="1.0"
     inkscape:pageopacity="0.0"
     inkscape:pageshadow="2"
     inkscape:zoom="0.35"
     inkscape:cx="823.14136"
     inkscape:cy="227.51075"
     inkscape:document-units="mm"
     inkscape:current-layer="layer1"
     showgrid="false"
     fit-margin-top="0"
     fit-margin-left="0"
     fit-margin-right="0"
     fit-margin-bottom="0"
     inkscape:window-width="1440"
     inkscape:window-height="837"
     inkscape:window-x="0"
     inkscape:window-y="30"
     inkscape:window-maximized="1" />
  <metadata
     id="metadata5157">
    <rdf:RDF>
      <cc:Work
         rdf:about="">
        <dc:format>image/svg+xml</dc:format>
        <dc:type
           rdf:resource="http://purl.org/dc/dcmitype/StillImage" />
        <dc:title></dc:title>
      </cc:Work>
    </rdf:RDF>
  </metadata>
  <g
     inkscape:label="Layer 1"
     inkscape:groupmode="layer"
     id="layer1"
     transform="translate(88.506343,1.2752205)">
    <path
       style="opacity:1;fill:#b90032;fill-opacity:1;stroke:none;stroke-width:0.54535294;stroke-miterlimit:4;stroke-dasharray:none;stroke-opacity:1"
       d="m -38.376303,154.77359 c -22.17524,-2e-5 -40.15189,4.85776 -40.15205,10.85016 v 41.97991 c 0.0167,0.92941 0.47518,1.85439 1.36426,2.75221 l -0.0496,10e-4 c 3.67611,1.80935 4.76342,3.98851 5.9867,6.14827 l 0.0151,-0.0285 c 4.60936,4.46546 17.81931,7.4909 32.73383,7.49696 0.034,-2e-5 0.0677,-0.001 0.10172,-0.001 0.034,4e-5 0.0677,0.001 0.10173,0.001 14.91451,-0.006 28.12448,-3.0315 32.7338195,-7.49696 l 0.0151,0.0285 c 1.22329,-2.15976 2.31058,-4.33892 5.9867,-6.14827 l -0.0496,-10e-4 c 0.88909,-0.89782 1.3476,-1.8228 1.36426,-2.75221 v -41.97991 c 0,-5.9924 -17.9768095,-10.85018 -40.1520395,-10.85016 z"
       id="ellipse3815"
       inkscape:connector-curvature="0" />
    <g
       id="g4011"
       style="opacity:1;fill:#e4e4e4;fill-opacity:1"
       transform="matrix(0.12254393,0,0,0.12254393,-462.1628,238.70058)">
      <path
         inkscape:connector-curvature="0"
         id="ellipse3915"
         d="m 3130.5871,-600.21748 v 292.2383 a 327.65427,103.15041 0 0 0 327.6543,103.1504 327.65427,103.15041 0 0 0 327.6543,-103.1504 v -292.2383 a 327.65427,103.15041 0 0 1 -327.6543,103.1504 327.65427,103.15041 0 0 1 -327.6543,-103.1504 z"
         style="opacity:1;fill:#e4e4e4;fill-opacity:1;stroke:none;stroke-width:4.80338907;stroke-miterlimit:4;stroke-dasharray:none;stroke-opacity:1" />
    </g>
    <path
       style="opacity:1;fill:#000000;fill-opacity:0.11560693;stroke:none;stroke-width:0.54535294;stroke-miterlimit:4;stroke-dasharray:none;stroke-opacity:1"
       d="m -38.376243,154.77351 c -22.17524,-10e-6 -40.15189,4.85777 -40.15205,10.85016 v 5.68848 c 2.76965,-0.62832 5.30457,-1.91137 7.11329,-3.67943 1.04383,-1.02035 1.85513,-2.18506 2.98653,-3.14592 0.56569,-0.48043 1.21354,-0.90871 1.95591,-1.2051 0.74235,-0.2964 1.58425,-0.45628 2.41283,-0.39276 0.88248,0.0676 1.71117,0.38389 2.42216,0.8006 0.71098,0.41671 1.31714,0.9325 1.91163,1.44994 0.5945,0.51744 1.18506,1.04237 1.87239,1.48298 0.68731,0.4406 1.48344,0.79698 2.35514,0.92458 0.58533,0.0857 1.18842,0.0663 1.77808,10e-4 2.22194,-0.24411 4.24217,-1.10901 6.23849,-1.91427 2.81106,-1.13391 5.7664,-2.19543 8.91891,-2.35634 1.57626,-0.0804 3.18451,0.0727 4.64829,0.53972 1.46376,0.467 2.77696,1.25803 3.63156,2.30297 0.76129,0.93086 1.13576,2.01852 1.65555,3.04708 0.25987,0.51428 0.5597,1.01904 0.95785,1.47532 0.39814,0.45627 0.89897,0.86412 1.50498,1.14526 0.56953,0.2642 1.22252,0.41118 1.88221,0.44613 0.65969,0.035 1.32581,-0.0405 1.95568,-0.19865 1.25974,-0.31636 2.35539,-0.95475 3.28282,-1.69623 1.85486,-1.48295 3.12144,-3.40068 5.16073,-4.72536 1.13656,-0.73829 2.55045,-1.27972 4.0240895,-1.25393 0.98184,0.0172 1.93685,0.28502 2.78835,0.66992 0.85148,0.38493 1.60923,0.8846 2.34222,1.39874 0.73297,0.51413 1.44803,1.04664 2.23452,1.50929 0.78648,0.46266 1.65317,0.85686 2.60142,1.0579 0.54255,0.11503 1.10701,0.16261 1.66846,0.146 v -3.51835 c 0,-5.99239 -17.9768095,-10.85017 -40.1520395,-10.85016 z"
       id="path4005"
       inkscape:connector-curvature="0" />
    <path
       style="opacity:1;fill:#eb6531;fill-opacity:1;stroke:none;stroke-width:0.12254392px;stroke-linecap:butt;stroke-linejoin:miter;stroke-opacity:1"
       d="m -71.501463,149.10749 c -4.61758,10.02832 -10.7701,15.30402 -17.00488,20.32506 4.9679,0.20036 10.0158,-1.37435 13.13541,-4.09756 1.16888,-1.02035 2.07739,-2.18507 3.34435,-3.14594 0.63346,-0.48043 1.35893,-0.9087 2.19023,-1.2051 0.83129,-0.29638 1.7741,-0.45628 2.70195,-0.39275 0.98821,0.0677 1.91607,0.38388 2.71224,0.80061 0.79617,0.41671 1.47497,0.93249 2.1407,1.44994 0.66572,0.51744 1.32698,1.04237 2.09665,1.48297 0.76966,0.4406 1.66118,0.79696 2.63732,0.92458 0.65545,0.0857 1.33103,0.0663 1.99134,0.001 2.48815,-0.2441 4.75023,-1.10901 6.98572,-1.91427 3.14786,-1.13391 6.45737,-2.19545 9.98758,-2.35634 1.76511,-0.0804 3.56609,0.0727 5.20524,0.53973 1.63914,0.46697 3.10971,1.25802 4.06669,2.30295 0.8525,0.93087 1.27165,2.01853 1.85371,3.04709 0.29102,0.51428 0.6269,1.01903 1.07274,1.47531 0.44585,0.45628 1.0066,0.86412 1.68522,1.14526 0.63776,0.26421 1.36893,0.41119 2.10766,0.44614 0.73873,0.0349 1.48467,-0.0405 2.19,-0.19865 1.41067,-0.31636 2.63775,-0.95476 3.67631,-1.69623 2.0771,-1.48295 3.49534,-3.40068 5.77895,-4.72537 1.2727295,-0.73828 2.8559395,-1.27973 4.5061295,-1.25392 1.09948,0.0172 2.16895,0.28501 3.12247,0.66993 0.95347,0.38492 1.80216,0.88458 2.62296,1.39873 0.8208,0.51413 1.6214,1.04664 2.5021,1.50929 0.88072,0.46264 1.85121,0.85685 2.91306,1.0579 1.29887,0.24592 2.71023,0.18841 3.95993,-0.16132 1.24969,-0.34972 2.3307005,-0.9896 3.0329705,-1.79556 -8.4313805,-4.33976 -13.3919005,-9.76899 -16.9644305,-15.63392 z"
       id="path3891"
       inkscape:connector-curvature="0"
       sodipodi:nodetypes="ccsccsccccccssccccsccsscccssccc" />
    <path
       style="opacity:1;fill:#f08e69;fill-opacity:1;stroke:none;stroke-width:0.50526154;stroke-miterlimit:4;stroke-dasharray:none;stroke-opacity:1"
       d="M -72.841783,133.08582 V 143.936 a 34.46548,10.850244 0 0 0 34.46548,10.85016 A 34.46548,10.850244 0 0 0 -3.9108235,143.936 V 133.08582 H -38.376303 Z"
       id="ellipse3809"
       inkscape:connector-curvature="0" />
    <path
       style="opacity:1;fill:url(#linearGradient4377);fill-opacity:1;stroke:none;stroke-width:0.50526154;stroke-miterlimit:4;stroke-dasharray:none;stroke-opacity:1"
       d="m -71.501463,146.94119 v 2.1663 c 4.13966,4.53053 17.40237,7.84496 33.12516,7.84496 15.72277,0 28.9854495,-3.31443 33.1251595,-7.84496 v -2.1663 c -4.13966,4.53052 -17.4023895,7.84497 -33.1251595,7.84497 -15.72279,0 -28.98547,-3.31445 -33.12516,-7.84497 z"
       id="ellipse3824"
       inkscape:connector-curvature="0" />
    <g
       transform="matrix(0.12254393,0,0,0.12254393,-462.1628,238.70058)"
       id="g4260"
       style="opacity:1;fill:#eb6531;fill-opacity:1">
      <g
         id="g4240"
         style="fill:#eb6531;fill-opacity:1">
        <ellipse
           style="opacity:1;fill:#eb6531;fill-opacity:1;stroke:none;stroke-width:4.12310553;stroke-miterlimit:4;stroke-dasharray:none;stroke-opacity:1"
           id="path3807"
           cx="3458.2415"
           cy="-861.85284"
           rx="281.25"
           ry="88.541664" />
      </g>
    </g>
    <g
       id="g4291"
       style="opacity:1;fill:url(#linearGradient4299);fill-opacity:1"
       transform="matrix(0.12254393,0,0,0.12254393,-365.22126,234.368)">
      <g
         id="g4289"
         style="fill:url(#linearGradient6555);fill-opacity:1">
        <ellipse
           ry="88.541664"
           rx="281.25"
           cy="-861.85284"
           cx="3458.2415"
           id="ellipse4287"
           style="opacity:1;fill:url(#linearGradient6553);fill-opacity:1;stroke:none;stroke-width:4.12310553;stroke-miterlimit:4;stroke-dasharray:none;stroke-opacity:1" />
      </g>
    </g>
    <ellipse
       style="opacity:1;fill:#ffff00;fill-opacity:1;stroke:none;stroke-width:1.04555905;stroke-linecap:round;stroke-linejoin:round;stroke-miterlimit:4;stroke-dasharray:none;stroke-opacity:1"
       id="path1054"
       cx="156.14272"
       cy="134.74319"
       rx="39.903114"
       ry="12.117681" />
    <path
       style="font-style:normal;font-weight:normal;font-size:131.12120056px;line-height:1.25;font-family:sans-serif;letter-spacing:0.78999996px;word-spacing:0px;opacity:1;fill:url(#linearGradient4715);fill-opacity:1;stroke:none;stroke-width:0.4017027"
       d="m -23.02893,189.47061 c 0.0017,0.31288 0.07781,0.58806 0.228118,0.82473 0.150253,0.23665 0.351104,0.41311 0.602151,0.52882 0.23539,0.10951 0.497547,0.14492 0.786589,0.10558 0.289049,-0.0393 0.550263,-0.14604 0.784131,-0.31915 0.114193,-0.0856 0.216119,-0.17857 0.305776,-0.2787 0,0 0,0 0,0 0.113239,-0.12585 0.206754,-0.26279 0.280685,-0.41081 0.140758,-0.27553 0.2106,-0.56946 0.210212,-0.88145 -0.163632,0.024 -0.327262,0.0477 -0.490891,0.071 -0.196291,0.0281 -0.392639,0.0558 -0.589043,0.083 6.2e-5,0.14814 -0.04688,0.28642 -0.14066,0.41461 -0.09377,0.11996 -0.215042,0.19015 -0.363778,0.21028 -0.156569,0.0212 -0.282065,-0.0156 -0.376404,-0.11023 -0.09436,-0.10282 -0.14189,-0.22844 -0.142329,-0.37663 -0.364677,0.0478 -0.729534,0.0941 -1.094557,0.1389 z m -41.721274,-1.52416 c 0.128456,2.84007 0.133433,5.65004 0.01493,8.42992 1.108392,0.29531 2.222389,0.56661 3.341245,0.81508 0.493872,0.10967 0.953262,0.11122 1.376552,0.005 0.423221,-0.10609 0.76355,-0.32116 1.019094,-0.64271 0.247491,-0.30703 0.375171,-0.70683 0.381755,-1.19655 0.0066,-0.48995 -0.117405,-0.93452 -0.370133,-1.33399 -0.252912,-0.39161 -0.595896,-0.70687 -1.027632,-0.94897 4.7e-5,-0.032 8.4e-5,-0.0641 1.12e-4,-0.0961 0.308605,-0.0939 0.575296,-0.28983 0.798475,-0.5875 0.20776,-0.27628 0.310505,-0.63309 0.306558,-1.06806 -0.0037,-0.40292 -0.120959,-0.80082 -0.351826,-1.19411 -0.215194,-0.37468 -0.531353,-0.7018 -0.948227,-0.98441 -0.393364,-0.27037 -0.823501,-0.44834 -1.289273,-0.53615 -1.08665,-0.20486 -2.170649,-0.42533 -3.251631,-0.66156 z m 1.611272,1.77704 c 0.535095,0.11263 1.071055,0.22117 1.607829,0.32565 0.316708,0.0617 0.581469,0.21149 0.793417,0.45128 0.196308,0.22882 0.296225,0.48738 0.299232,0.77616 0.0032,0.30465 -0.09938,0.53381 -0.306335,0.68555 -0.206988,0.15177 -0.476279,0.19424 -0.806916,0.12703 -0.519052,-0.1055 -1.037175,-0.21514 -1.554314,-0.32896 -0.0048,-0.67747 -0.01579,-1.35638 -0.03291,-2.03671 z m 8.17937,2.2401 c -0.506963,-0.0682 -0.981408,-0.03 -1.423978,0.11479 -0.427117,0.13903 -0.786889,0.38186 -1.081378,0.73017 0.326171,0.31919 0.651238,0.6367 0.976818,0.95385 0.179395,-0.19107 0.397401,-0.33652 0.6543,-0.43692 0.249106,-0.0934 0.51755,-0.12018 0.805811,-0.0806 0.412979,0.0567 0.744279,0.20542 0.993604,0.4489 0.241436,0.23428 0.361785,0.52562 0.360181,0.87538 -4.11e-4,0.0895 -8.56e-4,0.179 -0.0013,0.26849 -0.444277,-0.24348 -0.970112,-0.406 -1.577645,-0.49206 -0.451646,-0.064 -0.856081,-0.0392 -1.214496,0.0755 -0.366211,0.11344 -0.655018,0.30913 -0.867524,0.58908 -0.212452,0.27989 -0.32139,0.62439 -0.327626,1.03497 -0.0093,0.61137 0.182076,1.14601 0.578759,1.60115 0.404301,0.45626 0.918929,0.73607 1.544622,0.83181 0.383185,0.0586 0.721648,0.0309 1.014076,-0.0822 0.316165,-0.12598 0.558267,-0.29271 0.725942,-0.49829 0.03132,0.004 0.06265,0.008 0.09397,0.0124 -0.003,0.21127 -0.0062,0.42252 -0.0095,0.63376 0.505829,0.0672 1.012284,0.13045 1.519301,0.18982 0.01669,-1.27915 0.0279,-2.55839 0.03363,-3.83772 0.0038,-0.84784 -0.234534,-1.51706 -0.711481,-2.01218 -0.477503,-0.49569 -1.172966,-0.79732 -2.085969,-0.92012 0,0 -4e-5,0 -4e-5,0 z m 20.090608,0.98224 c -0.601575,0.0184 -1.146994,0.17436 -1.636637,0.46982 -0.481798,0.28716 -0.86047,0.68852 -1.136082,1.20706 -0.267709,0.50202 -0.400768,1.07174 -0.399015,1.71095 0.0018,0.64723 0.13798,1.22039 0.408961,1.7181 0.278907,0.51396 0.660839,0.90763 1.145307,1.17801 0.484475,0.27039 1.03195,0.39771 1.642249,0.37995 0.658466,-0.0192 1.227481,-0.18846 1.706897,-0.50482 0.0053,-0.003 0.01052,-0.007 0.01577,-0.0105 0.482637,-0.32332 0.854184,-0.76789 1.114,-1.33072 -0.37748,-0.15214 -0.755585,-0.30589 -1.13344,-0.46086 4.07e-4,1.7e-4 -0.282293,-0.1162 -0.281886,-0.11603 -0.299349,0.60208 -0.774529,0.91538 -1.424576,0.93431 -0.467825,0.0136 -0.856953,-0.14535 -1.167225,-0.47499 -0.310287,-0.32148 -0.466244,-0.76596 -0.468111,-1.33129 -0.0018,-0.54915 0.151194,-0.99378 0.458941,-1.33623 0.307763,-0.34245 0.695222,-0.51987 1.162736,-0.53388 0.649772,-0.0194 1.102759,0.24142 1.359176,0.78924 0.117367,-0.0553 0.234728,-0.11079 0.35207,-0.16641 0.356858,-0.16973 0.713223,-0.34082 1.069547,-0.51352 -0.216922,-0.55529 -0.567657,-0.96405 -1.052186,-1.22974 -0.0092,-0.005 -0.01844,-0.0102 -0.02771,-0.0152 -0.486905,-0.26348 -1.056243,-0.38325 -1.708787,-0.36328 z m 6.346912,-0.34884 c -0.512006,0.0406 -0.99176,0.18262 -1.439669,0.42676 -0.432229,0.23486 -0.796859,0.56132 -1.094329,0.98131 0.333204,0.25099 0.667325,0.50175 1.000109,0.7506 0.18019,-0.23382 0.400006,-0.42963 0.659287,-0.58797 0.251445,-0.14955 0.52278,-0.23543 0.814292,-0.2582 0.417607,-0.0326 0.752883,0.0461 1.006333,0.23839 0.245425,0.18465 0.369437,0.45322 0.371812,0.80702 6.08e-4,0.0905 0.0012,0.18109 0.0018,0.27164 -0.449813,-0.14963 -0.981763,-0.19964 -1.596744,-0.15309 -0.457269,0.0346 -0.866766,0.14945 -1.229025,0.34595 -0.370166,0.19701 -0.661378,0.461 -0.873434,0.79385 -0.212042,0.33282 -0.317396,0.70812 -0.316148,1.12696 0.0019,0.62379 0.208416,1.12225 0.620245,1.49215 0.419612,0.36931 0.94577,0.53371 1.578003,0.4885 0.387233,-0.0277 0.726815,-0.13191 1.018532,-0.3116 0.315351,-0.198 0.555555,-0.42001 0.720235,-0.66463 0.03154,-0.003 0.06308,-0.005 0.09461,-0.008 8.46e-4,0.21395 0.0016,0.4279 0.0024,0.64186 0.508978,-0.0442 1.017614,-0.0917 1.525849,-0.1426 -0.007,-1.29222 -0.01515,-2.58442 -0.0244,-3.87659 -0.0061,-0.85621 -0.250749,-1.48131 -0.733541,-1.87971 -0.483238,-0.39878 -1.184271,-0.55558 -2.10616,-0.48239 0,0 -3e-5,0 -3e-5,0 z m -22.122279,0.0583 c 4.62e-4,2.08074 -0.01008,4.16225 -0.03161,6.24454 2.733231,0.27832 5.480808,0.44757 8.232511,0.52417 -2.47e-4,-2.09262 -0.0012,-4.18178 -0.003,-6.26748 -0.509579,-0.014 -1.018939,-0.0311 -1.528032,-0.0513 4.49e-4,1.60703 -4.2e-5,3.21604 -0.0015,4.82701 -0.609356,-0.0246 -1.218334,-0.0538 -1.826833,-0.0878 0.0041,-1.61014 0.0062,-3.21852 0.0065,-4.82516 -0.504469,-0.0276 -1.008623,-0.0583 -1.512422,-0.0922 -4.67e-4,1.60605 -0.004,3.21355 -0.01049,4.8225 -0.611562,-0.0423 -1.222551,-0.0897 -1.832859,-0.14215 0.0098,-1.60679 0.01483,-3.21262 0.01509,-4.81748 -0.502867,-0.0416 -1.005325,-0.0865 -1.507331,-0.13466 z m 26.458081,-0.27904 c 0.01589,2.09928 0.03218,4.19812 0.04885,6.29652 0.515219,-0.0588 1.029964,-0.12131 1.544173,-0.18765 0.780103,-1.33966 1.518554,-2.62535 2.293306,-3.97811 -0.0052,0.009 0.14424,-0.24809 0.139056,-0.23918 0.03169,-0.005 0.06337,-0.01 0.09503,-0.0147 -0.0281,0.39879 -0.05588,0.79847 -0.08313,1.19718 0.01,0.89485 0.0221,1.78939 0.03641,2.68362 0.510245,-0.0786 1.020439,-0.15766 1.529251,-0.24077 -0.03216,-2.0938 -0.05412,-4.18611 -0.06589,-6.27692 -0.504815,0.0802 -1.014318,0.15868 -1.528099,0.2364 -3.06e-4,5.2e-4 -0.139402,0.23897 -0.139708,0.2395 -0.798041,1.38494 -1.504636,2.61525 -2.300697,3.98731 -0.03128,0.004 -0.06255,0.008 -0.09384,0.012 -0.0017,0.025 0.08504,-1.22148 0.08331,-1.19645 -0.0076,-0.90096 -0.01439,-1.80212 -0.02029,-2.70348 -0.511991,0.0648 -1.024584,0.12634 -1.537735,0.18475 z m 6.713962,-0.95212 c 0.0011,0.4998 0.0035,0.99955 0.0071,1.49925 0.609245,-0.10388 1.209158,-0.21214 1.798562,-0.3278 0.005,1.58061 0.04813,3.15327 0.129298,4.71797 0.501668,-0.1144 0.999213,-0.24006 1.491274,-0.38057 -0.136144,-1.52734 -0.200995,-3.07333 -0.194554,-4.63797 0.567918,-0.12896 1.124505,-0.26763 1.668603,-0.41894 0.0094,-0.48059 0.03138,-0.96487 0.06591,-1.45284 -1.583985,0.39183 -3.245073,0.71158 -4.966199,1.0009 z m -45.632429,1.71285 c 0.558512,0.12669 1.118268,0.24821 1.67919,0.36466 0.391979,0.0814 0.699107,0.24629 0.920871,0.49838 0.213989,0.24244 0.319361,0.53112 0.314843,0.86668 -0.0044,0.3274 -0.113132,0.57428 -0.325237,0.73887 -0.204228,0.15818 -0.503409,0.19592 -0.895774,0.111 -0.576984,-0.12487 -1.152666,-0.25555 -1.72695,-0.39216 0.01822,-0.72747 0.02924,-1.45661 0.03306,-2.18743 z m 8.170963,2.41052 c 0.436524,0.0614 0.853135,0.2144 1.249976,0.46068 -0.0035,0.40635 -0.136234,0.73954 -0.397801,0.99727 -0.261526,0.25769 -0.619631,0.35484 -1.072444,0.28859 -0.31227,-0.0457 -0.556587,-0.1641 -0.733289,-0.35336 -0.169086,-0.18002 -0.251773,-0.39567 -0.24842,-0.64623 0.0082,-0.61521 0.406962,-0.85874 1.201978,-0.74695 z m 26.472464,0.67218 c 0.4415,-0.0343 0.86336,0.0292 1.265983,0.19134 0.0023,0.41125 -0.125858,0.77675 -0.384679,1.09478 -0.258815,0.31801 -0.617339,0.49565 -1.075142,0.53005 -0.315741,0.0237 -0.564682,-0.041 -0.746795,-0.19277 -0.174229,-0.14416 -0.261879,-0.34395 -0.262774,-0.59868 -0.0022,-0.62547 0.3991,-0.96224 1.203407,-1.02472 z"
       id="text1080"
       inkscape:path-effect="#path-effect1089"
       inkscape:original-d="m -23.151853,187.90832 c 0,0.29802 0.0745,0.56872 0.22355,0.81185 0.14901,0.24312 0.34907,0.43516 0.60003,0.57633 0.23529,0.13333 0.49799,0.20009 0.78817,0.20009 0.29018,0 0.55287,-0.0668 0.78815,-0.20009 0.25882,-0.14901 0.45498,-0.34105 0.58831,-0.57633 0.14117,-0.24313 0.21182,-0.51383 0.21182,-0.81185 h -1.08231 c 0,0.14117 -0.0471,0.26667 -0.14122,0.37647 -0.0941,0.10196 -0.21574,0.15295 -0.36475,0.15295 -0.15686,0 -0.28238,-0.051 -0.37649,-0.15295 -0.0941,-0.1098 -0.14121,-0.2353 -0.14121,-0.37647 z m -41.66326,0.21181 v 8.42322 h 3.4116 c 0.50194,0 0.96469,-0.0942 1.38821,-0.28243 0.42351,-0.18823 0.76072,-0.46257 1.01169,-0.82333 0.24313,-0.34509 0.36477,-0.75685 0.36477,-1.23526 0,-0.47841 -0.12941,-0.89017 -0.38822,-1.23526 -0.25882,-0.33724 -0.60793,-0.58438 -1.04713,-0.74124 v -0.0941 c 0.31372,-0.14902 0.58441,-0.38815 0.81186,-0.71755 0.21175,-0.30587 0.3176,-0.67076 0.3176,-1.09428 0,-0.39214 -0.11387,-0.76069 -0.3413,-1.10577 -0.21176,-0.3294 -0.52544,-0.59597 -0.9411,-0.79989 -0.39215,-0.19606 -0.82332,-0.29415 -1.29389,-0.29415 z m 1.58828,1.42338 h 1.6352 c 0.32156,0 0.58813,0.0981 0.79989,0.29415 0.19607,0.18822 0.29415,0.42349 0.29415,0.70583 0,0.29803 -0.10586,0.54129 -0.31761,0.72951 -0.21176,0.18823 -0.48634,0.28219 -0.82358,0.28219 h -1.58805 z m 8.26669,0.81185 c -0.50978,0 -0.98806,0.10197 -1.4351,0.30588 -0.43135,0.19607 -0.79602,0.48619 -1.09405,0.87049 l 0.98802,0.77644 c 0.18038,-0.21176 0.4001,-0.38437 0.65891,-0.5177 0.25098,-0.12549 0.52143,-0.18813 0.81161,-0.18813 0.41567,0 0.74901,0.10197 0.99999,0.30588 0.24312,0.19607 0.36476,0.46265 0.36476,0.79988 v 0.25897 c -0.44704,-0.18038 -0.97655,-0.27069 -1.58829,-0.27069 -0.45488,0 -0.86251,0.0823 -1.22328,0.24701 -0.36862,0.1647 -0.65898,0.39994 -0.87074,0.70581 -0.21176,0.30587 -0.31761,0.65889 -0.31761,1.05887 0,0.59605 0.20394,1.08234 0.61177,1.4588 0.41566,0.37645 0.93716,0.56461 1.56459,0.56461 0.38429,0 0.72175,-0.0745 1.01194,-0.22355 0.31371,-0.1647 0.55286,-0.35675 0.71756,-0.57635 h 0.0941 v 0.61177 h 1.51767 v -3.69403 c 0,-0.81565 -0.23938,-1.43523 -0.71779,-1.85874 -0.47841,-0.42351 -1.17641,-0.63522 -2.09402,-0.63522 z m 20.0041,0 c -0.59605,0 -1.13721,0.13718 -1.62346,0.41167 -0.47841,0.26666 -0.85496,0.64709 -1.12946,1.14119 -0.26666,0.47841 -0.39995,1.02346 -0.39995,1.6352 0,0.61959 0.13329,1.16851 0.39995,1.64692 0.2745,0.4941 0.65105,0.87453 1.12946,1.14119 0.47841,0.26666 1.01956,0.39995 1.62346,0.39995 0.65881,0 1.2274,-0.14495 1.70581,-0.43513 0.47841,-0.29019 0.84695,-0.69806 1.10576,-1.22353 l -1.39991,-0.61177 c -0.29803,0.56469 -0.76855,0.84704 -1.41166,0.84704 -0.46273,0 -0.84705,-0.16071 -1.15292,-0.48227 -0.30587,-0.31371 -0.45881,-0.74124 -0.45881,-1.2824 0,-0.52546 0.15294,-0.94888 0.45881,-1.27044 0.30587,-0.32155 0.69019,-0.48251 1.15292,-0.48251 0.64312,0 1.09008,0.26681 1.34105,0.80013 l 1.41164,-0.58831 c -0.21175,-0.54116 -0.55674,-0.94903 -1.03515,-1.22353 -0.48626,-0.28234 -1.05874,-0.4234 -1.71754,-0.4234 z m 6.30121,0 c -0.50978,0 -0.98807,0.10197 -1.43511,0.30588 -0.43136,0.19607 -0.79601,0.48619 -1.09404,0.87049 l 0.98801,0.77644 c 0.18039,-0.21176 0.40011,-0.38437 0.65892,-0.5177 0.25097,-0.12549 0.52143,-0.18813 0.81161,-0.18813 0.41567,0 0.74901,0.10197 0.99999,0.30588 0.24312,0.19607 0.36475,0.46265 0.36475,0.79988 v 0.25897 c -0.44704,-0.18038 -0.97655,-0.27069 -1.58828,-0.27069 -0.45489,0 -0.86252,0.0823 -1.22329,0.24701 -0.36861,0.1647 -0.65898,0.39994 -0.87073,0.70581 -0.21176,0.30587 -0.31761,0.65889 -0.31761,1.05887 0,0.59605 0.20394,1.08234 0.61176,1.4588 0.41567,0.37645 0.93717,0.56461 1.5646,0.56461 0.38429,0 0.72151,-0.0745 1.01169,-0.22355 0.31372,-0.1647 0.55309,-0.35675 0.71779,-0.57635 h 0.0941 v 0.61177 h 1.51768 v -3.69403 c 0,-0.81565 -0.23938,-1.43523 -0.71779,-1.85874 -0.47841,-0.42351 -1.17641,-0.63522 -2.09402,-0.63522 z m -21.97868,0.18813 v 5.99986 h 8.16448 v -5.99986 h -1.51768 v 4.62339 h -1.81159 v -4.62339 h -1.50595 v 4.62339 h -1.82332 v -4.62339 z m 26.30529,0 v 5.99986 h 1.54114 l 2.48222,-3.69403 h 0.0941 l -0.0941,1.12947 v 2.56456 h 1.52941 v -5.99986 h -1.52941 l -2.48222,3.70575 h -0.0941 l 0.0941,-1.12922 v -2.57653 z m 6.75021,0 v 1.43534 h 1.8822 v 4.56452 h 1.54113 v -4.56452 h 1.87071 v -1.43534 z m -45.64882,2.37644 h 1.71754 c 0.39998,0 0.71365,0.10197 0.94109,0.30588 0.2196,0.19608 0.32934,0.45876 0.32934,0.78816 0,0.32156 -0.10586,0.58424 -0.31761,0.78815 -0.20392,0.19607 -0.50592,0.29416 -0.90591,0.29416 h -1.76445 z m 8.30212,0.89418 c 0.4392,0 0.85873,0.094 1.25871,0.28219 0,0.39215 -0.12941,0.72936 -0.38822,1.0117 -0.25881,0.28234 -0.6157,0.42365 -1.07058,0.42365 -0.31371,0 -0.56062,-0.0784 -0.74101,-0.23528 -0.17254,-0.14902 -0.25897,-0.34517 -0.25897,-0.5883 0,-0.59606 0.4001,-0.89396 1.20007,-0.89396 z m 26.3053,0 c 0.43919,0 0.85872,0.094 1.25871,0.28219 0,0.39215 -0.1294,0.72936 -0.38821,1.0117 -0.25883,0.28234 -0.61571,0.42365 -1.07059,0.42365 -0.31372,0 -0.56063,-0.0784 -0.74102,-0.23528 -0.17254,-0.14902 -0.25896,-0.34517 -0.25896,-0.5883 0,-0.59606 0.4001,-0.89396 1.20007,-0.89396 z"
       inkscape:connector-curvature="0" />
    <g
       style="opacity:1"
       id="g4769"
       transform="matrix(0.04071645,0,0,0.04071645,-141.50824,37.42147)">
      <path
         style="opacity:1;fill:url(#linearGradient6557);fill-opacity:1;stroke:none;stroke-width:2.43938565;stroke-miterlimit:4;stroke-dasharray:none;stroke-opacity:1"
         d="m 2487.8452,-643.16589 870.8412,233.34121 -72.6024,270.95582 -870.8412,-233.34121 z"
         id="path4731"
         inkscape:connector-curvature="0" />
      <path
         style="opacity:1;fill:url(#linearGradient6559);fill-opacity:1;stroke:none;stroke-width:4.45026493;stroke-miterlimit:4;stroke-dasharray:none;stroke-opacity:1"
         d="m 3458.2414,-684.87272 c -180.9574,-7e-5 -327.653,39.64098 -327.6543,88.54098 v 342.5703 c 0.136,7.5843 3.8776,15.1324 11.1328,22.459 l -0.4043,0.0117 c 29.9983,14.7649 38.8711,32.5476 48.8535,50.1719 l 0.1231,-0.2324 c 37.6139,36.4397 145.4116,61.1283 267.1191,61.1777 0.2777,-1e-4 0.5526,-0.006 0.8301,-0.006 0.2776,3e-4 0.5524,0.006 0.8301,0.006 121.7075,-0.0494 229.5053,-24.738 267.1191,-61.1777 l 0.1231,0.2324 c 9.9825,-17.6243 18.8551,-35.407 48.8535,-50.1719 l -0.4043,-0.0117 c 7.2552,-7.3266 10.9968,-14.8747 11.1328,-22.459 v -342.5703 c 0,-48.9 -146.6969,-88.54105 -327.6543,-88.54098 z"
         id="path4733"
         inkscape:connector-curvature="0" />
      <path
         style="opacity:1;fill:#000000;fill-opacity:0.11560693;stroke:none;stroke-width:4.45026493;stroke-miterlimit:4;stroke-dasharray:none;stroke-opacity:1"
         d="m 3833.332,812.76367 c -180.9574,-7e-5 -327.653,39.64102 -327.6543,88.54102 v 46.41992 c 22.6013,-5.12728 43.2871,-15.59741 58.0469,-30.02539 8.518,-8.32644 15.1385,-17.83087 24.3711,-25.67188 4.6162,-3.9205 9.9029,-7.41534 15.9609,-9.83398 6.0578,-2.41863 12.928,-3.72341 19.6895,-3.20508 7.2013,0.55205 13.9637,3.13266 19.7656,6.5332 5.8019,3.40053 10.7483,7.60955 15.5996,11.83204 4.8513,4.22248 9.6705,8.50611 15.2793,12.10156 5.6087,3.59547 12.1054,6.50357 19.2188,7.54492 4.7764,0.69925 9.6979,0.54076 14.5097,0.0117 18.1318,-1.99197 34.6175,-9.0499 50.9082,-15.6211 22.9392,-9.2531 47.0557,-17.91554 72.7813,-19.22851 12.8628,-0.65649 25.9867,0.5935 37.9316,4.4043 11.9448,3.81078 22.661,10.26589 29.6348,18.79297 6.2124,7.59613 9.2682,16.47186 13.5098,24.86523 2.1207,4.19669 4.5674,8.31567 7.8164,12.03906 3.249,3.72338 7.3359,7.05149 12.2812,9.34571 4.6475,2.15605 9.9761,3.35545 15.3594,3.64062 5.3833,0.28517 10.8191,-0.3303 15.959,-1.62109 10.28,-2.58161 19.2208,-7.7911 26.789,-13.8418 15.1363,-12.10138 25.472,-27.75071 42.1133,-38.56055 9.2747,-6.02465 20.8125,-10.44298 32.8379,-10.23242 8.0122,0.14029 15.8054,2.32575 22.7539,5.4668 6.9483,3.14105 13.1318,7.21853 19.1133,11.41406 5.9813,4.19552 11.8164,8.54103 18.2344,12.31641 6.418,3.77536 13.4905,6.99217 21.2285,8.63281 4.4274,0.93871 9.0336,1.32686 13.6152,1.1914 v -28.71093 c 0,-48.9 -146.6969,-88.54109 -327.6543,-88.54102 z"
         id="path4735"
         inkscape:connector-curvature="0"
         transform="translate(-375.09015,-1497.637)" />
      <path
         style="opacity:1;fill:url(#linearGradient6561);fill-opacity:1;stroke:none;stroke-width:1px;stroke-linecap:butt;stroke-linejoin:miter;stroke-opacity:1"
         d="m 3187.9289,-731.10999 c -37.681,81.83443 -87.8877,124.886 -138.7656,165.85938 40.5398,1.63499 81.7323,-11.21523 107.1894,-33.4375 9.5385,-8.32644 16.9522,-17.83087 27.291,-25.67188 5.1693,-3.9205 11.0894,-7.41534 17.8731,-9.83398 6.7836,-2.41863 14.4772,-3.72341 22.0488,-3.20508 8.0641,0.55205 15.6358,3.13266 22.1328,6.5332 6.497,3.40053 12.0362,7.60954 17.4688,11.83203 5.4325,4.22248 10.8286,8.50612 17.1094,12.10157 6.2807,3.59547 13.5558,6.50357 21.5214,7.54492 5.3487,0.69925 10.8617,0.54074 16.25,0.0117 20.3042,-1.99197 38.7635,-9.0499 57.0059,-15.6211 25.6876,-9.25311 52.6943,-17.91554 81.502,-19.22851 14.4039,-0.65649 29.1005,0.59349 42.4765,4.40429 13.3759,3.81078 25.3763,10.26589 33.1856,18.79297 6.9567,7.59614 10.3771,16.47187 15.1269,24.86524 2.3748,4.19669 5.1157,8.31567 8.7539,12.03906 3.6383,3.72338 8.2142,7.05148 13.752,9.3457 5.2043,2.15605 11.1709,3.35546 17.1992,3.64063 6.0283,0.28517 12.1154,-0.33031 17.8711,-1.6211 11.5116,-2.58161 21.525,-7.79109 30,-13.84179 16.9498,-12.10138 28.5231,-27.75071 47.1582,-38.56055 10.3859,-6.02465 23.3054,-10.44298 36.7715,-10.23242 8.9721,0.14029 17.6994,2.32575 25.4804,5.4668 7.7807,3.14105 14.7062,7.21853 21.4043,11.41406 6.698,4.19552 13.2311,8.54102 20.418,12.3164 7.1869,3.77536 15.1064,6.99218 23.7715,8.63282 10.5992,2.00684 22.1164,1.53753 32.3144,-1.31641 10.1979,-2.85391 19.0193,-8.07551 24.75,-14.65234 -68.8029,-35.4139 -109.2824,-79.71835 -138.4355,-127.57813 z"
         id="path4737"
         inkscape:connector-curvature="0"
         sodipodi:nodetypes="ccsccsccccccssccccsccsscccssccc" />
      <path
         style="opacity:1;fill:url(#linearGradient6563);fill-opacity:1;stroke:none;stroke-width:4.12310553;stroke-miterlimit:4;stroke-dasharray:none;stroke-opacity:1"
         d="m 3176.9914,-861.85218 v 88.54102 a 281.25,88.541664 0 0 0 281.25,88.54102 281.25,88.541664 0 0 0 281.25,-88.54102 v -88.54102 h -281.25 z"
         id="path4739"
         inkscape:connector-curvature="0" />
      <path
         style="opacity:1;fill:url(#linearGradient6565);fill-opacity:1;stroke:none;stroke-width:4.12310553;stroke-miterlimit:4;stroke-dasharray:none;stroke-opacity:1"
         d="m 3187.9289,-748.78772 v 17.67773 c 33.781,36.97065 142.0092,64.01758 270.3125,64.01758 128.3031,0 236.5311,-27.04693 270.3125,-64.01758 v -17.67773 c -33.781,36.97064 -142.0094,64.01758 -270.3125,64.01758 -128.3033,0 -236.5312,-27.04694 -270.3125,-64.01758 z"
         id="path4741"
         inkscape:connector-curvature="0" />
      <g
         id="g4745"
         style="fill:url(#linearGradient6569);fill-opacity:1"
         transform="translate(-2.1459962e-5)">
        <path
           inkscape:connector-curvature="0"
           id="path4743"
           d="m 3130.5871,-600.21748 v 292.2383 a 327.65427,103.15041 0 0 0 327.6543,103.1504 327.65427,103.15041 0 0 0 327.6543,-103.1504 v -292.2383 a 327.65427,103.15041 0 0 1 -327.6543,103.1504 327.65427,103.15041 0 0 1 -327.6543,-103.1504 z"
           style="opacity:1;fill:url(#linearGradient6567);fill-opacity:1;stroke:none;stroke-width:4.80338907;stroke-miterlimit:4;stroke-dasharray:none;stroke-opacity:1" />
      </g>
      <g
         id="g4751"
         style="fill:url(#linearGradient6575);fill-opacity:1">
        <g
           id="g4749"
           style="fill:url(#linearGradient6573);fill-opacity:1">
          <ellipse
             style="opacity:1;fill:url(#linearGradient6571);fill-opacity:1;stroke:none;stroke-width:4.12310553;stroke-miterlimit:4;stroke-dasharray:none;stroke-opacity:1"
             id="ellipse4747"
             cx="3458.2415"
             cy="-861.85284"
             rx="281.25"
             ry="88.541664" />
        </g>
      </g>
      <path
         style="font-style:normal;font-weight:normal;font-size:131.12120056px;line-height:1.25;font-family:sans-serif;letter-spacing:0.78999996px;word-spacing:0px;fill:url(#linearGradient6577);fill-opacity:1;stroke:none;stroke-width:3.27803016"
         d="m 3579.7872,-398.81622 c 0.031,2.53647 0.6658,4.76475 1.9023,6.67964 1.2363,1.91474 2.8816,3.34081 4.934,4.27353 1.9243,0.8828 4.0641,1.16452 6.4206,0.83864 2.3565,-0.32589 4.4834,-1.19767 6.3843,-2.60986 2.0906,-1.57324 3.6718,-3.44662 4.7424,-5.61292 0.7041,-1.39264 1.1879,-2.84402 1.4508,-4.35208 0,0 0,0 0,0 0.1605,-0.92079 0.2387,-1.86293 0.2343,-2.82609 -0.083,0.0124 -0.1652,0.0248 -0.2477,0.0372 -2.8519,0.42754 -5.7053,0.8445 -8.5602,1.25071 0.01,1.20309 -0.3661,2.32782 -1.1243,3.37169 -0.7588,0.97706 -1.7444,1.5506 -2.9568,1.7185 -1.2762,0.17673 -2.3018,-0.11849 -3.0764,-0.88311 -0.7753,-0.83148 -1.1697,-1.84931 -1.1818,-3.05182 -2.9724,0.40056 -5.9462,0.7893 -8.9215,1.16601 z m -340.3845,-14.20679 c 1.0564,23.11969 1.0502,45.9779 -0.019,68.57463 9.0339,2.48038 18.1224,4.74889 27.2562,6.82081 4.0319,0.91461 7.7813,0.94521 11.2316,0.0982 3.4501,-0.84695 6.2191,-2.58411 8.2938,-5.18887 2.0096,-2.48714 3.0397,-5.73169 3.0854,-9.71186 0.046,-3.98197 -0.968,-7.60079 -3.027,-10.86058 -2.0604,-3.19605 -4.8514,-5.77735 -8.3637,-7.76908 7e-4,-0.26041 0,-0.52084 0,-0.78128 2.5131,-0.74658 4.6864,-2.32449 6.5086,-4.73002 1.6964,-2.2327 2.5404,-5.12465 2.5201,-8.65776 -0.019,-3.27281 -0.9611,-6.51227 -2.828,-9.72313 -1.7397,-3.05847 -4.3034,-5.73889 -7.6908,-8.06495 -3.1961,-2.22513 -6.6967,-3.70193 -10.4911,-4.44648 -8.8519,-1.73698 -17.6792,-3.59083 -26.4784,-5.55961 z m 13.0949,14.53732 c 4.3501,0.94403 8.7088,1.85685 13.0758,2.73853 2.5767,0.52022 4.7284,1.75502 6.4475,3.71781 1.5923,1.87261 2.3989,3.98053 2.4168,6.32848 0.019,2.47695 -0.8201,4.33412 -2.5069,5.55657 -1.6869,1.22255 -3.8783,1.55344 -6.5664,0.98914 -4.2198,-0.88584 -8.4299,-1.80449 -12.6297,-2.75644 -0.029,-5.51288 -0.1084,-11.03758 -0.2371,-16.57409 z m 66.5843,18.74378 c -4.1355,-0.59209 -8.0075,-0.31963 -11.6207,0.82224 -3.4869,1.09619 -6.4255,3.04126 -8.8304,5.84959 2.6553,2.61215 5.3019,5.2075 7.9572,7.80063 1.4631,-1.539 3.2418,-2.70464 5.338,-3.50154 2.0326,-0.74086 4.2229,-0.93918 6.5748,-0.59834 3.3693,0.4883 6.0721,1.71595 8.1065,3.70399 1.9704,1.91308 2.9532,4.2785 2.9437,7.10874 -0,0.72425 -0.01,1.44849 -0.01,2.17272 -3.6301,-1.99799 -7.9235,-3.34764 -12.8807,-4.08197 -3.6854,-0.54592 -6.9838,-0.36871 -9.9057,0.5412 -2.9853,0.89973 -5.3383,2.47269 -7.0665,4.7353 -1.7276,2.26184 -2.6095,5.05552 -2.6491,8.3906 -0.059,4.96639 1.523,9.31847 4.7829,13.02833 3.3225,3.71975 7.5414,6.00507 12.6549,6.79932 3.1316,0.48641 5.8923,0.27048 8.2713,-0.63706 2.5721,-1.01125 4.5372,-2.35361 5.8936,-4.012 0.2558,0.0348 0.5116,0.0695 0.7674,0.10403 -0.012,1.71035 -0.024,3.42066 -0.038,5.13091 4.1328,0.56004 8.2704,1.08805 12.4118,1.58537 0.049,-10.33889 0.087,-20.67744 0.1162,-31.01565 0.019,-6.85136 -1.9222,-12.27561 -5.8104,-16.31672 -3.8917,-4.04469 -9.5621,-6.54339 -17.0097,-7.60969 z m 164.1401,9.2351 c -4.9126,0.14463 -9.3681,1.3929 -13.3705,3.76165 -1.1373,0.66478 -2.2046,1.40607 -3.2018,2.22458 0,0 0,0 0,0 -2.456,2.01465 -4.4863,4.49728 -6.0917,7.45674 -2.1927,4.02904 -3.2862,8.6039 -3.282,13.74177 0,5.20198 1.1056,9.81226 3.3046,13.82194 1.6098,2.94478 3.6443,5.40286 6.1023,7.36562 0,0 0,0 0,0 0.9982,0.79692 2.0663,1.5123 3.2043,2.14541 3.9399,2.19196 8.3975,3.23838 13.3743,3.11692 5.4289,-0.13249 10.1213,-1.50672 14.0741,-4.10036 1.3329,-0.87463 2.5635,-1.861 3.6912,-2.95797 0,0 0,0 0,0 2.2173,-2.1565 4.0385,-4.7408 5.4601,-7.74589 -1.8093,-0.7245 -3.6206,-1.45312 -5.4318,-2.185 -2.0339,-0.82279 -4.0688,-1.6506 -6.1041,-2.48347 -2.462,4.84702 -6.3514,7.36051 -11.6549,7.49642 -3.8169,0.0978 -6.986,-1.19303 -9.508,-3.8525 -2.5225,-2.59409 -3.7844,-6.17212 -3.7879,-10.71814 -0,-4.41657 1.2532,-7.98856 3.7719,-10.73835 2.5187,-2.74977 5.685,-4.17214 9.5024,-4.28057 5.3053,-0.15069 8.9995,1.94938 11.0816,6.36278 2.2279,-1.03474 4.4549,-2.07727 6.681,-3.12766 1.6489,-0.77803 3.2966,-1.56004 4.9437,-2.34648 -1.1752,-2.98019 -2.8384,-5.43677 -4.9876,-7.37698 -1.0771,-0.97347 -2.2763,-1.81709 -3.5975,-2.53232 -4.0212,-2.20494 -8.7437,-3.20802 -14.1737,-3.04814 z m 51.8381,-2.86063 c -4.1804,0.33681 -8.0975,1.49043 -11.7559,3.4655 -3.5304,1.90011 -6.5105,4.53634 -8.9455,7.92449 2.718,2.02068 5.4496,4.04567 8.1619,6.0512 1.476,-1.88723 3.2744,-3.46869 5.3941,-4.74857 2.0555,-1.20887 4.2723,-1.90479 6.6534,-2.09127 3.4108,-0.26713 6.1483,0.36559 8.216,1.91785 2.0023,1.49069 3.0119,3.66201 3.0244,6.5234 0,0.73229 0.01,1.46461 0.01,2.19696 -3.6695,-1.21001 -8.0122,-1.61248 -13.0363,-1.23545 -3.7355,0.28033 -7.0831,1.20828 -10.0472,2.79354 -3.0289,1.58959 -5.415,3.71846 -7.1576,6.40209 -1.7425,2.68349 -2.6157,5.70884 -2.6221,9.08714 -0.01,5.03121 1.6528,9.05506 4.9935,12.04907 3.4038,2.98921 7.6854,4.33103 12.8467,3.98203 3.1613,-0.21377 5.9392,-1.04739 8.3318,-2.49323 2.5866,-1.59352 4.5615,-3.38427 5.9205,-5.36037 0.2575,-0.0213 0.5149,-0.0428 0.7724,-0.0643 -0.01,1.73145 -0.014,3.46305 -0.023,5.19479 4.1562,-0.34458 8.31,-0.71574 12.4608,-1.11469 0.034,-10.47367 0.026,-20.94256 -0.024,-31.40667 -0.033,-6.93375 -2.0318,-11.99296 -5.9742,-15.20836 -3.9472,-3.21938 -9.6716,-4.47153 -17.1986,-3.86511 z m -180.7541,-0.42563 c -0.031,16.79366 -0.068,33.59098 -0.1087,50.39197 6.4999,0.68534 13.0072,1.29863 19.5188,1.84506 15.8449,1.32926 31.7223,2.25875 47.6145,2.81081 -0.014,-16.7873 -0.023,-33.57236 -0.027,-50.35519 -4.1642,-0.14592 -8.3267,-0.31881 -12.487,-0.51862 -0.01,12.93402 -0,25.86943 0,38.80625 -4.9721,-0.23605 -9.9416,-0.50985 -14.908,-0.8219 -0,-12.93973 0,-25.87803 0.016,-38.8149 -4.1229,-0.26199 -8.2433,-0.55045 -12.361,-0.86534 -0.02,12.93939 -0.031,25.8802 -0.034,38.82243 -2.6049,-0.19745 -5.2089,-0.40555 -7.8118,-0.6244 -2.3863,-0.20118 -4.7717,-0.41118 -7.1559,-0.63021 0.014,-12.94534 0.034,-25.88851 0.057,-38.82953 -4.11,-0.37954 -8.2159,-0.78494 -12.3172,-1.21643 z m 216.1428,-1.43922 c 0.1624,17.01267 0.2384,34.03472 0.2278,51.06616 4.2084,-0.46267 8.4133,-0.95525 12.614,-1.479 6.8184,-11.47368 13.2945,-22.61825 19.982,-34.24358 0.2536,-0.0378 0.5072,-0.0756 0.7608,-0.11363 -0.03,0.42341 -0.6509,9.31228 -0.6806,9.73569 0.063,7.28212 0.1299,14.56306 0.2017,21.84284 0.8763,-0.13134 1.7523,-0.26414 2.6282,-0.39841 3.2765,-0.50234 6.5498,-1.02497 9.8181,-1.57285 -0.2775,-16.99867 -0.4561,-34.01542 -0.5357,-51.05024 -3.2325,0.52061 -6.4761,1.02619 -9.73,1.51809 -0.8697,0.13131 -1.7396,0.26149 -2.6098,0.39055 -6.7427,11.72812 -13.1085,22.766 -19.9121,34.34512 -0.2553,0.0321 -0.5105,0.0641 -0.7658,0.096 0.01,-0.089 0.7044,-9.62682 0.711,-9.71581 -0.046,-7.3161 -0.1014,-14.63135 -0.1664,-21.94576 -4.1757,0.53393 -8.3569,1.04219 -12.5432,1.52478 z m 54.6057,-7.80837 c 0.01,4.07074 0.023,8.13932 0.051,12.20576 4.9916,-0.87264 9.9503,-1.79096 14.8731,-2.76334 0.065,12.86172 0.3723,25.67273 0.9227,38.43304 1.2962,-0.28425 2.5909,-0.5746 3.8842,-0.87136 2.829,-0.64989 5.6529,-1.31939 8.4609,-2.03426 -0.8142,-12.5913 -1.2359,-25.26691 -1.2649,-38.02682 4.7391,-1.02686 9.2867,-2.0689 13.6141,-3.19324 0.028,-3.94024 0.1415,-7.90467 0.3413,-11.89329 -6.9636,1.63317 -14.3667,3.14428 -22.1374,4.69973 -6.2013,1.21754 -12.4509,2.36209 -18.7447,3.44378 z m -372.3288,12.33275 c 4.5369,1.05895 9.0867,2.07566 13.6487,3.05111 3.188,0.68168 5.6861,2.03873 7.4906,4.10031 1.7412,1.98253 2.5995,4.33559 2.5646,7.06493 -0.034,2.66294 -0.9167,4.66639 -2.6431,5.99626 -1.662,1.2779 -4.0997,1.57209 -7.2964,0.86292 -4.7008,-1.04283 -9.3888,-2.13449 -14.0626,-3.27668 0.1576,-5.91912 0.257,-11.85207 0.2982,-17.79885 z m 66.5627,20.00047 c 3.5635,0.52037 6.9674,1.78217 10.2145,3.79691 -0.016,3.28875 -1.0854,5.9791 -3.2084,8.05503 -2.1225,2.07536 -5.0398,2.84921 -8.7384,2.29475 -2.5507,-0.38236 -4.5501,-1.35212 -6.0001,-2.89437 -1.3875,-1.46705 -2.0707,-3.22055 -2.052,-5.25332 0.046,-4.99259 3.2963,-6.94644 9.7844,-5.999 z m 216.221,6.60586 c 3.6066,-0.27472 7.0494,0.24013 10.3304,1.55526 0,3.32701 -1.0598,6.28307 -3.1887,8.85179 -2.1289,2.56866 -5.0656,3.99829 -8.8044,4.26827 -2.5787,0.18619 -4.6074,-0.34123 -6.0865,-1.56996 -1.4153,-1.167 -2.1214,-2.78157 -2.1178,-4.83838 0.01,-5.04934 3.2956,-7.76644 9.867,-8.26698 z"
         id="path4753"
         inkscape:path-effect="#path-effect4755"
         inkscape:original-d="m 3582.4781,-414.48207 c 0,2.432 0.6082,4.641 1.8242,6.625 1.216,1.984 2.8485,3.5511 4.8965,4.7031 1.92,1.088 4.0637,1.6328 6.4317,1.6328 2.368,0 4.5116,-0.5448 6.4316,-1.6328 2.112,-1.216 3.7128,-2.7831 4.8008,-4.7031 1.152,-1.984 1.7285,-4.193 1.7285,-6.625 h -8.832 c 0,1.152 -0.3844,2.1762 -1.1524,3.0722 -0.768,0.832 -1.7605,1.2481 -2.9765,1.2481 -1.28,0 -2.3043,-0.4161 -3.0723,-1.2481 -0.768,-0.896 -1.1523,-1.9202 -1.1523,-3.0722 z m -339.9863,1.7285 v 68.7363 h 27.8398 c 4.096,0 7.8722,-0.7687 11.3282,-2.3047 3.456,-1.536 6.2078,-3.7747 8.2558,-6.7187 1.984,-2.816 2.9766,-6.1761 2.9766,-10.0801 0,-3.904 -1.056,-7.2641 -3.168,-10.0801 -2.112,-2.752 -4.9609,-4.7688 -8.5449,-6.0488 v -0.7676 c 2.56,-1.216 4.769,-3.1674 6.625,-5.8554 1.728,-2.496 2.5918,-5.4737 2.5918,-8.9297 0,-3.2 -0.9292,-6.2075 -2.7852,-9.0235 -1.728,-2.688 -4.2877,-4.8633 -7.6797,-6.5273 -3.2,-1.6 -6.7185,-2.4004 -10.5585,-2.4004 z m 12.9609,11.6152 h 13.3438 c 2.624,0 4.7993,0.8004 6.5273,2.4004 1.6,1.536 2.4004,3.4558 2.4004,5.7598 0,2.432 -0.8638,4.4171 -2.5918,5.9531 -1.728,1.536 -3.9687,2.3027 -6.7207,2.3027 h -12.959 z m 67.459,6.625 c -4.16,0 -8.0629,0.8321 -11.7109,2.4961 -3.52,1.6 -6.4958,3.9675 -8.9278,7.1035 l 8.0625,6.336 c 1.472,-1.728 3.265,-3.1366 5.377,-4.2246 2.048,-1.024 4.255,-1.5352 6.623,-1.5352 3.392,0 6.1122,0.8321 8.1602,2.4961 1.984,1.6 2.9766,3.7754 2.9766,6.5273 v 2.1133 c -3.648,-1.472 -7.969,-2.209 -12.961,-2.209 -3.712,0 -7.0384,0.6717 -9.9824,2.0157 -3.008,1.344 -5.3775,3.2637 -7.1055,5.7597 -1.728,2.496 -2.5918,5.3767 -2.5918,8.6407 0,4.864 1.6642,8.8323 4.9922,11.9043 3.392,3.072 7.6476,4.6074 12.7676,4.6074 3.136,0 5.8898,-0.6082 8.2578,-1.8242 2.56,-1.344 4.5115,-2.9112 5.8555,-4.7032 h 0.7676 v 4.9922 h 12.3847 v -30.1445 c 0,-6.656 -1.9534,-11.712 -5.8574,-15.168 -3.904,-3.456 -9.5999,-5.1836 -17.0879,-5.1836 z m 163.2402,0 c -4.864,0 -9.28,1.1194 -13.248,3.3594 -3.904,2.176 -6.9768,5.2805 -9.2168,9.3125 -2.176,3.904 -3.2637,8.3518 -3.2637,13.3438 0,5.056 1.0877,9.5354 3.2637,13.4394 2.24,4.032 5.3128,7.1365 9.2168,9.3125 3.904,2.176 8.32,3.2637 13.248,3.2637 5.3761,0 10.016,-1.1828 13.92,-3.5508 3.904,-2.368 6.9114,-5.6964 9.0234,-9.9844 l -11.4238,-4.9922 c -2.432,4.608 -6.2716,6.9121 -11.5196,6.9121 -3.776,0 -6.9122,-1.3115 -9.4082,-3.9355 -2.496,-2.56 -3.7441,-6.0488 -3.7441,-10.4648 0,-4.288 1.2481,-7.7432 3.7441,-10.3672 2.496,-2.624 5.6322,-3.9375 9.4082,-3.9375 5.2481,0 8.8954,2.1773 10.9434,6.5293 l 11.5195,-4.8008 c -1.728,-4.416 -4.5432,-7.7444 -8.4472,-9.9844 -3.968,-2.304 -8.6397,-3.4551 -14.0157,-3.4551 z m 51.42,0 c -4.16,0 -8.063,0.8321 -11.711,2.4961 -3.52,1.6 -6.4957,3.9675 -8.9277,7.1035 l 8.0625,6.336 c 1.472,-1.728 3.265,-3.1366 5.377,-4.2246 2.048,-1.024 4.255,-1.5352 6.623,-1.5352 3.392,0 6.1122,0.8321 8.1602,2.4961 1.984,1.6 2.9765,3.7754 2.9765,6.5273 v 2.1133 c -3.648,-1.472 -7.9689,-2.209 -12.9609,-2.209 -3.712,0 -7.0384,0.6717 -9.9824,2.0157 -3.008,1.344 -5.3775,3.2637 -7.1055,5.7597 -1.728,2.496 -2.5918,5.3767 -2.5918,8.6407 0,4.864 1.6642,8.8323 4.9922,11.9043 3.392,3.072 7.6476,4.6074 12.7676,4.6074 3.136,0 5.8878,-0.6082 8.2558,-1.8242 2.56,-1.344 4.5134,-2.9112 5.8574,-4.7032 h 0.7676 v 4.9922 h 12.3848 v -30.1445 c 0,-6.656 -1.9534,-11.712 -5.8574,-15.168 -3.904,-3.456 -9.5999,-5.1836 -17.0879,-5.1836 z m -179.3535,1.5352 v 48.9609 h 66.625 v -48.9609 h -12.3848 v 37.7285 h -14.7832 v -37.7285 h -12.2891 v 37.7285 h -14.8789 v -37.7285 z m 214.6601,0 v 48.9609 h 12.5762 l 20.2558,-30.1445 h 0.7676 l -0.7676,9.2168 v 20.9277 h 12.4805 v -48.9609 h -12.4805 l -20.2558,30.2402 h -0.7676 l 0.7676,-9.2148 v -21.0254 z m 55.084,0 v 11.7129 h 15.3594 v 37.248 h 12.5761 v -37.248 h 15.2657 v -11.7129 z m -372.5098,19.3926 h 14.0157 c 3.264,0 5.8236,0.8321 7.6796,2.4961 1.792,1.6 2.6875,3.7436 2.6875,6.4316 0,2.624 -0.8638,4.7676 -2.5918,6.4316 -1.664,1.6 -4.1285,2.4004 -7.3925,2.4004 h -14.3985 z m 67.7481,7.2968 c 3.584,0 7.0075,0.7668 10.2715,2.3028 0,3.2 -1.056,5.9518 -3.168,8.2558 -2.112,2.304 -5.0243,3.4571 -8.7363,3.4571 -2.56,0 -4.5749,-0.64 -6.0469,-1.92 -1.408,-1.216 -2.1133,-2.8167 -2.1133,-4.8007 0,-4.864 3.265,-7.295 9.793,-7.295 z m 214.6601,0 c 3.584,0 7.0075,0.7668 10.2715,2.3028 0,3.2 -1.0559,5.9518 -3.1679,8.2558 -2.1121,2.304 -5.0244,3.4571 -8.7364,3.4571 -2.56,0 -4.5749,-0.64 -6.0469,-1.92 -1.408,-1.216 -2.1132,-2.8167 -2.1132,-4.8007 0,-4.864 3.2649,-7.295 9.7929,-7.295 z"
         inkscape:connector-curvature="0" />
    </g>
    <g
       style="opacity:1"
       id="g4837"
       transform="matrix(0.12254393,0,0,0.12254393,-183.4911,245.6327)">
      <path
         style="opacity:1;fill:url(#linearGradient4839);fill-opacity:1;stroke:none;stroke-width:2.43938565;stroke-miterlimit:4;stroke-dasharray:none;stroke-opacity:1"
         d="m 2487.8452,-643.16589 870.8412,233.34121 -72.6024,270.95582 -870.8412,-233.34121 z"
         id="path4799"
         inkscape:connector-curvature="0" />
      <path
         style="opacity:1;fill:url(#linearGradient4841);fill-opacity:1;stroke:none;stroke-width:4.45026493;stroke-miterlimit:4;stroke-dasharray:none;stroke-opacity:1"
         d="m 3458.2414,-684.87272 c -180.9574,-7e-5 -327.653,39.64098 -327.6543,88.54098 v 342.5703 c 0.136,7.5843 3.8776,15.1324 11.1328,22.459 l -0.4043,0.0117 c 29.9983,14.7649 38.8711,32.5476 48.8535,50.1719 l 0.1231,-0.2324 c 37.6139,36.4397 145.4116,61.1283 267.1191,61.1777 0.2777,-1e-4 0.5526,-0.006 0.8301,-0.006 0.2776,3e-4 0.5524,0.006 0.8301,0.006 121.7075,-0.0494 229.5053,-24.738 267.1191,-61.1777 l 0.1231,0.2324 c 9.9825,-17.6243 18.8551,-35.407 48.8535,-50.1719 l -0.4043,-0.0117 c 7.2552,-7.3266 10.9968,-14.8747 11.1328,-22.459 v -342.5703 c 0,-48.9 -146.6969,-88.54105 -327.6543,-88.54098 z"
         id="path4801"
         inkscape:connector-curvature="0" />
      <g
         id="g4805"
         style="fill:url(#linearGradient4845);fill-opacity:1"
         transform="translate(-2.1459962e-5)">
        <path
           inkscape:connector-curvature="0"
           id="path4803"
           d="m 3130.5871,-600.21748 v 292.2383 a 327.65427,103.15041 0 0 0 327.6543,103.1504 327.65427,103.15041 0 0 0 327.6543,-103.1504 v -292.2383 a 327.65427,103.15041 0 0 1 -327.6543,103.1504 327.65427,103.15041 0 0 1 -327.6543,-103.1504 z"
           style="opacity:1;fill:url(#linearGradient6579);fill-opacity:1;stroke:none;stroke-width:4.80338907;stroke-miterlimit:4;stroke-dasharray:none;stroke-opacity:1" />
      </g>
      <path
         style="opacity:1;fill:#000000;fill-opacity:0.11560693;stroke:none;stroke-width:4.45026493;stroke-miterlimit:4;stroke-dasharray:none;stroke-opacity:1"
         d="m 3833.332,812.76367 c -180.9574,-7e-5 -327.653,39.64102 -327.6543,88.54102 v 46.41992 c 22.6013,-5.12728 43.2871,-15.59741 58.0469,-30.02539 8.518,-8.32644 15.1385,-17.83087 24.3711,-25.67188 4.6162,-3.9205 9.9029,-7.41534 15.9609,-9.83398 6.0578,-2.41863 12.928,-3.72341 19.6895,-3.20508 7.2013,0.55205 13.9637,3.13266 19.7656,6.5332 5.8019,3.40053 10.7483,7.60955 15.5996,11.83204 4.8513,4.22248 9.6705,8.50611 15.2793,12.10156 5.6087,3.59547 12.1054,6.50357 19.2188,7.54492 4.7764,0.69925 9.6979,0.54076 14.5097,0.0117 18.1318,-1.99197 34.6175,-9.0499 50.9082,-15.6211 22.9392,-9.2531 47.0557,-17.91554 72.7813,-19.22851 12.8628,-0.65649 25.9867,0.5935 37.9316,4.4043 11.9448,3.81078 22.661,10.26589 29.6348,18.79297 6.2124,7.59613 9.2682,16.47186 13.5098,24.86523 2.1207,4.19669 4.5674,8.31567 7.8164,12.03906 3.249,3.72338 7.3359,7.05149 12.2812,9.34571 4.6475,2.15605 9.9761,3.35545 15.3594,3.64062 5.3833,0.28517 10.8191,-0.3303 15.959,-1.62109 10.28,-2.58161 19.2208,-7.7911 26.789,-13.8418 15.1363,-12.10138 25.472,-27.75071 42.1133,-38.56055 9.2747,-6.02465 20.8125,-10.44298 32.8379,-10.23242 8.0122,0.14029 15.8054,2.32575 22.7539,5.4668 6.9483,3.14105 13.1318,7.21853 19.1133,11.41406 5.9813,4.19552 11.8164,8.54103 18.2344,12.31641 6.418,3.77536 13.4905,6.99217 21.2285,8.63281 4.4274,0.93871 9.0336,1.32686 13.6152,1.1914 v -28.71093 c 0,-48.9 -146.6969,-88.54109 -327.6543,-88.54102 z"
         id="path4807"
         inkscape:connector-curvature="0"
         transform="translate(-375.09015,-1497.637)" />
      <path
         style="opacity:1;fill:url(#linearGradient4847);fill-opacity:1;stroke:none;stroke-width:1px;stroke-linecap:butt;stroke-linejoin:miter;stroke-opacity:1"
         d="m 3187.9289,-731.10999 c -37.681,81.83443 -87.8877,124.886 -138.7656,165.85938 40.5398,1.63499 81.7323,-11.21523 107.1894,-33.4375 9.5385,-8.32644 16.9522,-17.83087 27.291,-25.67188 5.1693,-3.9205 11.0894,-7.41534 17.8731,-9.83398 6.7836,-2.41863 14.4772,-3.72341 22.0488,-3.20508 8.0641,0.55205 15.6358,3.13266 22.1328,6.5332 6.497,3.40053 12.0362,7.60954 17.4688,11.83203 5.4325,4.22248 10.8286,8.50612 17.1094,12.10157 6.2807,3.59547 13.5558,6.50357 21.5214,7.54492 5.3487,0.69925 10.8617,0.54074 16.25,0.0117 20.3042,-1.99197 38.7635,-9.0499 57.0059,-15.6211 25.6876,-9.25311 52.6943,-17.91554 81.502,-19.22851 14.4039,-0.65649 29.1005,0.59349 42.4765,4.40429 13.3759,3.81078 25.3763,10.26589 33.1856,18.79297 6.9567,7.59614 10.3771,16.47187 15.1269,24.86524 2.3748,4.19669 5.1157,8.31567 8.7539,12.03906 3.6383,3.72338 8.2142,7.05148 13.752,9.3457 5.2043,2.15605 11.1709,3.35546 17.1992,3.64063 6.0283,0.28517 12.1154,-0.33031 17.8711,-1.6211 11.5116,-2.58161 21.525,-7.79109 30,-13.84179 16.9498,-12.10138 28.5231,-27.75071 47.1582,-38.56055 10.3859,-6.02465 23.3054,-10.44298 36.7715,-10.23242 8.9721,0.14029 17.6994,2.32575 25.4804,5.4668 7.7807,3.14105 14.7062,7.21853 21.4043,11.41406 6.698,4.19552 13.2311,8.54102 20.418,12.3164 7.1869,3.77536 15.1064,6.99218 23.7715,8.63282 10.5992,2.00684 22.1164,1.53753 32.3144,-1.31641 10.1979,-2.85391 19.0193,-8.07551 24.75,-14.65234 -68.8029,-35.4139 -109.2824,-79.71835 -138.4355,-127.57813 z"
         id="path4809"
         inkscape:connector-curvature="0"
         sodipodi:nodetypes="ccsccsccccccssccccsccsscccssccc" />
      <path
         style="opacity:1;fill:url(#linearGradient4849);fill-opacity:1;stroke:none;stroke-width:4.12310553;stroke-miterlimit:4;stroke-dasharray:none;stroke-opacity:1"
         d="m 3176.9914,-861.85218 v 88.54102 a 281.25,88.541664 0 0 0 281.25,88.54102 281.25,88.541664 0 0 0 281.25,-88.54102 v -88.54102 h -281.25 z"
         id="path4811"
         inkscape:connector-curvature="0" />
      <path
         style="opacity:1;fill:url(#linearGradient6581);fill-opacity:1;stroke:none;stroke-width:4.12310553;stroke-miterlimit:4;stroke-dasharray:none;stroke-opacity:1"
         d="m 3187.9289,-748.78772 v 17.67773 c 33.781,36.97065 142.0092,64.01758 270.3125,64.01758 128.3031,0 236.5311,-27.04693 270.3125,-64.01758 v -17.67773 c -33.781,36.97064 -142.0094,64.01758 -270.3125,64.01758 -128.3033,0 -236.5312,-27.04694 -270.3125,-64.01758 z"
         id="path4813"
         inkscape:connector-curvature="0" />
      <g
         id="g4819"
         style="fill:url(#linearGradient4857);fill-opacity:1">
        <g
           id="g4817"
           style="fill:url(#linearGradient6585);fill-opacity:1">
          <ellipse
             style="opacity:1;fill:url(#linearGradient6583);fill-opacity:1;stroke:none;stroke-width:4.12310553;stroke-miterlimit:4;stroke-dasharray:none;stroke-opacity:1"
             id="ellipse4815"
             cx="3458.2415"
             cy="-861.85284"
             rx="281.25"
             ry="88.541664" />
        </g>
      </g>
      <path
         style="font-style:normal;font-weight:normal;font-size:131.12120056px;line-height:1.25;font-family:sans-serif;letter-spacing:0.78999996px;word-spacing:0px;fill:url(#linearGradient6587);fill-opacity:1;stroke:none;stroke-width:3.27803016"
         d="m 3579.7872,-398.81622 c 0.031,2.53647 0.6658,4.76475 1.9023,6.67964 1.2363,1.91474 2.8816,3.34081 4.934,4.27353 1.9243,0.8828 4.0641,1.16452 6.4206,0.83864 2.3565,-0.32589 4.4834,-1.19767 6.3843,-2.60986 2.0906,-1.57324 3.6718,-3.44662 4.7424,-5.61292 0.7041,-1.39264 1.1879,-2.84402 1.4508,-4.35208 0,0 0,0 0,0 0.1605,-0.92079 0.2387,-1.86293 0.2343,-2.82609 -0.083,0.0124 -0.1652,0.0248 -0.2477,0.0372 -2.8519,0.42754 -5.7053,0.8445 -8.5602,1.25071 0.01,1.20309 -0.3661,2.32782 -1.1243,3.37169 -0.7588,0.97706 -1.7444,1.5506 -2.9568,1.7185 -1.2762,0.17673 -2.3018,-0.11849 -3.0764,-0.88311 -0.7753,-0.83148 -1.1697,-1.84931 -1.1818,-3.05182 -2.9724,0.40056 -5.9462,0.7893 -8.9215,1.16601 z m -340.3845,-14.20679 c 1.0564,23.11969 1.0502,45.9779 -0.019,68.57463 9.0339,2.48038 18.1224,4.74889 27.2562,6.82081 4.0319,0.91461 7.7813,0.94521 11.2316,0.0982 3.4501,-0.84695 6.2191,-2.58411 8.2938,-5.18887 2.0096,-2.48714 3.0397,-5.73169 3.0854,-9.71186 0.046,-3.98197 -0.968,-7.60079 -3.027,-10.86058 -2.0604,-3.19605 -4.8514,-5.77735 -8.3637,-7.76908 7e-4,-0.26041 0,-0.52084 0,-0.78128 2.5131,-0.74658 4.6864,-2.32449 6.5086,-4.73002 1.6964,-2.2327 2.5404,-5.12465 2.5201,-8.65776 -0.019,-3.27281 -0.9611,-6.51227 -2.828,-9.72313 -1.7397,-3.05847 -4.3034,-5.73889 -7.6908,-8.06495 -3.1961,-2.22513 -6.6967,-3.70193 -10.4911,-4.44648 -8.8519,-1.73698 -17.6792,-3.59083 -26.4784,-5.55961 z m 13.0949,14.53732 c 4.3501,0.94403 8.7088,1.85685 13.0758,2.73853 2.5767,0.52022 4.7284,1.75502 6.4475,3.71781 1.5923,1.87261 2.3989,3.98053 2.4168,6.32848 0.019,2.47695 -0.8201,4.33412 -2.5069,5.55657 -1.6869,1.22255 -3.8783,1.55344 -6.5664,0.98914 -4.2198,-0.88584 -8.4299,-1.80449 -12.6297,-2.75644 -0.029,-5.51288 -0.1084,-11.03758 -0.2371,-16.57409 z m 66.5843,18.74378 c -4.1355,-0.59209 -8.0075,-0.31963 -11.6207,0.82224 -3.4869,1.09619 -6.4255,3.04126 -8.8304,5.84959 2.6553,2.61215 5.3019,5.2075 7.9572,7.80063 1.4631,-1.539 3.2418,-2.70464 5.338,-3.50154 2.0326,-0.74086 4.2229,-0.93918 6.5748,-0.59834 3.3693,0.4883 6.0721,1.71595 8.1065,3.70399 1.9704,1.91308 2.9532,4.2785 2.9437,7.10874 -0,0.72425 -0.01,1.44849 -0.01,2.17272 -3.6301,-1.99799 -7.9235,-3.34764 -12.8807,-4.08197 -3.6854,-0.54592 -6.9838,-0.36871 -9.9057,0.5412 -2.9853,0.89973 -5.3383,2.47269 -7.0665,4.7353 -1.7276,2.26184 -2.6095,5.05552 -2.6491,8.3906 -0.059,4.96639 1.523,9.31847 4.7829,13.02833 3.3225,3.71975 7.5414,6.00507 12.6549,6.79932 3.1316,0.48641 5.8923,0.27048 8.2713,-0.63706 2.5721,-1.01125 4.5372,-2.35361 5.8936,-4.012 0.2558,0.0348 0.5116,0.0695 0.7674,0.10403 -0.012,1.71035 -0.024,3.42066 -0.038,5.13091 4.1328,0.56004 8.2704,1.08805 12.4118,1.58537 0.049,-10.33889 0.087,-20.67744 0.1162,-31.01565 0.019,-6.85136 -1.9222,-12.27561 -5.8104,-16.31672 -3.8917,-4.04469 -9.5621,-6.54339 -17.0097,-7.60969 z m 164.1401,9.2351 c -4.9126,0.14463 -9.3681,1.3929 -13.3705,3.76165 -1.1373,0.66478 -2.2046,1.40607 -3.2018,2.22458 0,0 0,0 0,0 -2.456,2.01465 -4.4863,4.49728 -6.0917,7.45674 -2.1927,4.02904 -3.2862,8.6039 -3.282,13.74177 0,5.20198 1.1056,9.81226 3.3046,13.82194 1.6098,2.94478 3.6443,5.40286 6.1023,7.36562 0,0 0,0 0,0 0.9982,0.79692 2.0663,1.5123 3.2043,2.14541 3.9399,2.19196 8.3975,3.23838 13.3743,3.11692 5.4289,-0.13249 10.1213,-1.50672 14.0741,-4.10036 1.3329,-0.87463 2.5635,-1.861 3.6912,-2.95797 0,0 0,0 0,0 2.2173,-2.1565 4.0385,-4.7408 5.4601,-7.74589 -1.8093,-0.7245 -3.6206,-1.45312 -5.4318,-2.185 -2.0339,-0.82279 -4.0688,-1.6506 -6.1041,-2.48347 -2.462,4.84702 -6.3514,7.36051 -11.6549,7.49642 -3.8169,0.0978 -6.986,-1.19303 -9.508,-3.8525 -2.5225,-2.59409 -3.7844,-6.17212 -3.7879,-10.71814 -0,-4.41657 1.2532,-7.98856 3.7719,-10.73835 2.5187,-2.74977 5.685,-4.17214 9.5024,-4.28057 5.3053,-0.15069 8.9995,1.94938 11.0816,6.36278 2.2279,-1.03474 4.4549,-2.07727 6.681,-3.12766 1.6489,-0.77803 3.2966,-1.56004 4.9437,-2.34648 -1.1752,-2.98019 -2.8384,-5.43677 -4.9876,-7.37698 -1.0771,-0.97347 -2.2763,-1.81709 -3.5975,-2.53232 -4.0212,-2.20494 -8.7437,-3.20802 -14.1737,-3.04814 z m 51.8381,-2.86063 c -4.1804,0.33681 -8.0975,1.49043 -11.7559,3.4655 -3.5304,1.90011 -6.5105,4.53634 -8.9455,7.92449 2.718,2.02068 5.4496,4.04567 8.1619,6.0512 1.476,-1.88723 3.2744,-3.46869 5.3941,-4.74857 2.0555,-1.20887 4.2723,-1.90479 6.6534,-2.09127 3.4108,-0.26713 6.1483,0.36559 8.216,1.91785 2.0023,1.49069 3.0119,3.66201 3.0244,6.5234 0,0.73229 0.01,1.46461 0.01,2.19696 -3.6695,-1.21001 -8.0122,-1.61248 -13.0363,-1.23545 -3.7355,0.28033 -7.0831,1.20828 -10.0472,2.79354 -3.0289,1.58959 -5.415,3.71846 -7.1576,6.40209 -1.7425,2.68349 -2.6157,5.70884 -2.6221,9.08714 -0.01,5.03121 1.6528,9.05506 4.9935,12.04907 3.4038,2.98921 7.6854,4.33103 12.8467,3.98203 3.1613,-0.21377 5.9392,-1.04739 8.3318,-2.49323 2.5866,-1.59352 4.5615,-3.38427 5.9205,-5.36037 0.2575,-0.0213 0.5149,-0.0428 0.7724,-0.0643 -0.01,1.73145 -0.014,3.46305 -0.023,5.19479 4.1562,-0.34458 8.31,-0.71574 12.4608,-1.11469 0.034,-10.47367 0.026,-20.94256 -0.024,-31.40667 -0.033,-6.93375 -2.0318,-11.99296 -5.9742,-15.20836 -3.9472,-3.21938 -9.6716,-4.47153 -17.1986,-3.86511 z m -180.7541,-0.42563 c -0.031,16.79366 -0.068,33.59098 -0.1087,50.39197 6.4999,0.68534 13.0072,1.29863 19.5188,1.84506 15.8449,1.32926 31.7223,2.25875 47.6145,2.81081 -0.014,-16.7873 -0.023,-33.57236 -0.027,-50.35519 -4.1642,-0.14592 -8.3267,-0.31881 -12.487,-0.51862 -0.01,12.93402 -0,25.86943 0,38.80625 -4.9721,-0.23605 -9.9416,-0.50985 -14.908,-0.8219 -0,-12.93973 0,-25.87803 0.016,-38.8149 -4.1229,-0.26199 -8.2433,-0.55045 -12.361,-0.86534 -0.02,12.93939 -0.031,25.8802 -0.034,38.82243 -2.6049,-0.19745 -5.2089,-0.40555 -7.8118,-0.6244 -2.3863,-0.20118 -4.7717,-0.41118 -7.1559,-0.63021 0.014,-12.94534 0.034,-25.88851 0.057,-38.82953 -4.11,-0.37954 -8.2159,-0.78494 -12.3172,-1.21643 z m 216.1428,-1.43922 c 0.1624,17.01267 0.2384,34.03472 0.2278,51.06616 4.2084,-0.46267 8.4133,-0.95525 12.614,-1.479 6.8184,-11.47368 13.2945,-22.61825 19.982,-34.24358 0.2536,-0.0378 0.5072,-0.0756 0.7608,-0.11363 -0.03,0.42341 -0.6509,9.31228 -0.6806,9.73569 0.063,7.28212 0.1299,14.56306 0.2017,21.84284 0.8763,-0.13134 1.7523,-0.26414 2.6282,-0.39841 3.2765,-0.50234 6.5498,-1.02497 9.8181,-1.57285 -0.2775,-16.99867 -0.4561,-34.01542 -0.5357,-51.05024 -3.2325,0.52061 -6.4761,1.02619 -9.73,1.51809 -0.8697,0.13131 -1.7396,0.26149 -2.6098,0.39055 -6.7427,11.72812 -13.1085,22.766 -19.9121,34.34512 -0.2553,0.0321 -0.5105,0.0641 -0.7658,0.096 0.01,-0.089 0.7044,-9.62682 0.711,-9.71581 -0.046,-7.3161 -0.1014,-14.63135 -0.1664,-21.94576 -4.1757,0.53393 -8.3569,1.04219 -12.5432,1.52478 z m 54.6057,-7.80837 c 0.01,4.07074 0.023,8.13932 0.051,12.20576 4.9916,-0.87264 9.9503,-1.79096 14.8731,-2.76334 0.065,12.86172 0.3723,25.67273 0.9227,38.43304 1.2962,-0.28425 2.5909,-0.5746 3.8842,-0.87136 2.829,-0.64989 5.6529,-1.31939 8.4609,-2.03426 -0.8142,-12.5913 -1.2359,-25.26691 -1.2649,-38.02682 4.7391,-1.02686 9.2867,-2.0689 13.6141,-3.19324 0.028,-3.94024 0.1415,-7.90467 0.3413,-11.89329 -6.9636,1.63317 -14.3667,3.14428 -22.1374,4.69973 -6.2013,1.21754 -12.4509,2.36209 -18.7447,3.44378 z m -372.3288,12.33275 c 4.5369,1.05895 9.0867,2.07566 13.6487,3.05111 3.188,0.68168 5.6861,2.03873 7.4906,4.10031 1.7412,1.98253 2.5995,4.33559 2.5646,7.06493 -0.034,2.66294 -0.9167,4.66639 -2.6431,5.99626 -1.662,1.2779 -4.0997,1.57209 -7.2964,0.86292 -4.7008,-1.04283 -9.3888,-2.13449 -14.0626,-3.27668 0.1576,-5.91912 0.257,-11.85207 0.2982,-17.79885 z m 66.5627,20.00047 c 3.5635,0.52037 6.9674,1.78217 10.2145,3.79691 -0.016,3.28875 -1.0854,5.9791 -3.2084,8.05503 -2.1225,2.07536 -5.0398,2.84921 -8.7384,2.29475 -2.5507,-0.38236 -4.5501,-1.35212 -6.0001,-2.89437 -1.3875,-1.46705 -2.0707,-3.22055 -2.052,-5.25332 0.046,-4.99259 3.2963,-6.94644 9.7844,-5.999 z m 216.221,6.60586 c 3.6066,-0.27472 7.0494,0.24013 10.3304,1.55526 0,3.32701 -1.0598,6.28307 -3.1887,8.85179 -2.1289,2.56866 -5.0656,3.99829 -8.8044,4.26827 -2.5787,0.18619 -4.6074,-0.34123 -6.0865,-1.56996 -1.4153,-1.167 -2.1214,-2.78157 -2.1178,-4.83838 0.01,-5.04934 3.2956,-7.76644 9.867,-8.26698 z"
         id="path4821"
         inkscape:path-effect="#path-effect4823"
         inkscape:original-d="m 3582.4781,-414.48207 c 0,2.432 0.6082,4.641 1.8242,6.625 1.216,1.984 2.8485,3.5511 4.8965,4.7031 1.92,1.088 4.0637,1.6328 6.4317,1.6328 2.368,0 4.5116,-0.5448 6.4316,-1.6328 2.112,-1.216 3.7128,-2.7831 4.8008,-4.7031 1.152,-1.984 1.7285,-4.193 1.7285,-6.625 h -8.832 c 0,1.152 -0.3844,2.1762 -1.1524,3.0722 -0.768,0.832 -1.7605,1.2481 -2.9765,1.2481 -1.28,0 -2.3043,-0.4161 -3.0723,-1.2481 -0.768,-0.896 -1.1523,-1.9202 -1.1523,-3.0722 z m -339.9863,1.7285 v 68.7363 h 27.8398 c 4.096,0 7.8722,-0.7687 11.3282,-2.3047 3.456,-1.536 6.2078,-3.7747 8.2558,-6.7187 1.984,-2.816 2.9766,-6.1761 2.9766,-10.0801 0,-3.904 -1.056,-7.2641 -3.168,-10.0801 -2.112,-2.752 -4.9609,-4.7688 -8.5449,-6.0488 v -0.7676 c 2.56,-1.216 4.769,-3.1674 6.625,-5.8554 1.728,-2.496 2.5918,-5.4737 2.5918,-8.9297 0,-3.2 -0.9292,-6.2075 -2.7852,-9.0235 -1.728,-2.688 -4.2877,-4.8633 -7.6797,-6.5273 -3.2,-1.6 -6.7185,-2.4004 -10.5585,-2.4004 z m 12.9609,11.6152 h 13.3438 c 2.624,0 4.7993,0.8004 6.5273,2.4004 1.6,1.536 2.4004,3.4558 2.4004,5.7598 0,2.432 -0.8638,4.4171 -2.5918,5.9531 -1.728,1.536 -3.9687,2.3027 -6.7207,2.3027 h -12.959 z m 67.459,6.625 c -4.16,0 -8.0629,0.8321 -11.7109,2.4961 -3.52,1.6 -6.4958,3.9675 -8.9278,7.1035 l 8.0625,6.336 c 1.472,-1.728 3.265,-3.1366 5.377,-4.2246 2.048,-1.024 4.255,-1.5352 6.623,-1.5352 3.392,0 6.1122,0.8321 8.1602,2.4961 1.984,1.6 2.9766,3.7754 2.9766,6.5273 v 2.1133 c -3.648,-1.472 -7.969,-2.209 -12.961,-2.209 -3.712,0 -7.0384,0.6717 -9.9824,2.0157 -3.008,1.344 -5.3775,3.2637 -7.1055,5.7597 -1.728,2.496 -2.5918,5.3767 -2.5918,8.6407 0,4.864 1.6642,8.8323 4.9922,11.9043 3.392,3.072 7.6476,4.6074 12.7676,4.6074 3.136,0 5.8898,-0.6082 8.2578,-1.8242 2.56,-1.344 4.5115,-2.9112 5.8555,-4.7032 h 0.7676 v 4.9922 h 12.3847 v -30.1445 c 0,-6.656 -1.9534,-11.712 -5.8574,-15.168 -3.904,-3.456 -9.5999,-5.1836 -17.0879,-5.1836 z m 163.2402,0 c -4.864,0 -9.28,1.1194 -13.248,3.3594 -3.904,2.176 -6.9768,5.2805 -9.2168,9.3125 -2.176,3.904 -3.2637,8.3518 -3.2637,13.3438 0,5.056 1.0877,9.5354 3.2637,13.4394 2.24,4.032 5.3128,7.1365 9.2168,9.3125 3.904,2.176 8.32,3.2637 13.248,3.2637 5.3761,0 10.016,-1.1828 13.92,-3.5508 3.904,-2.368 6.9114,-5.6964 9.0234,-9.9844 l -11.4238,-4.9922 c -2.432,4.608 -6.2716,6.9121 -11.5196,6.9121 -3.776,0 -6.9122,-1.3115 -9.4082,-3.9355 -2.496,-2.56 -3.7441,-6.0488 -3.7441,-10.4648 0,-4.288 1.2481,-7.7432 3.7441,-10.3672 2.496,-2.624 5.6322,-3.9375 9.4082,-3.9375 5.2481,0 8.8954,2.1773 10.9434,6.5293 l 11.5195,-4.8008 c -1.728,-4.416 -4.5432,-7.7444 -8.4472,-9.9844 -3.968,-2.304 -8.6397,-3.4551 -14.0157,-3.4551 z m 51.42,0 c -4.16,0 -8.063,0.8321 -11.711,2.4961 -3.52,1.6 -6.4957,3.9675 -8.9277,7.1035 l 8.0625,6.336 c 1.472,-1.728 3.265,-3.1366 5.377,-4.2246 2.048,-1.024 4.255,-1.5352 6.623,-1.5352 3.392,0 6.1122,0.8321 8.1602,2.4961 1.984,1.6 2.9765,3.7754 2.9765,6.5273 v 2.1133 c -3.648,-1.472 -7.9689,-2.209 -12.9609,-2.209 -3.712,0 -7.0384,0.6717 -9.9824,2.0157 -3.008,1.344 -5.3775,3.2637 -7.1055,5.7597 -1.728,2.496 -2.5918,5.3767 -2.5918,8.6407 0,4.864 1.6642,8.8323 4.9922,11.9043 3.392,3.072 7.6476,4.6074 12.7676,4.6074 3.136,0 5.8878,-0.6082 8.2558,-1.8242 2.56,-1.344 4.5134,-2.9112 5.8574,-4.7032 h 0.7676 v 4.9922 h 12.3848 v -30.1445 c 0,-6.656 -1.9534,-11.712 -5.8574,-15.168 -3.904,-3.456 -9.5999,-5.1836 -17.0879,-5.1836 z m -179.3535,1.5352 v 48.9609 h 66.625 v -48.9609 h -12.3848 v 37.7285 h -14.7832 v -37.7285 h -12.2891 v 37.7285 h -14.8789 v -37.7285 z m 214.6601,0 v 48.9609 h 12.5762 l 20.2558,-30.1445 h 0.7676 l -0.7676,9.2168 v 20.9277 h 12.4805 v -48.9609 h -12.4805 l -20.2558,30.2402 h -0.7676 l 0.7676,-9.2148 v -21.0254 z m 55.084,0 v 11.7129 h 15.3594 v 37.248 h 12.5761 v -37.248 h 15.2657 v -11.7129 z m -372.5098,19.3926 h 14.0157 c 3.264,0 5.8236,0.8321 7.6796,2.4961 1.792,1.6 2.6875,3.7436 2.6875,6.4316 0,2.624 -0.8638,4.7676 -2.5918,6.4316 -1.664,1.6 -4.1285,2.4004 -7.3925,2.4004 h -14.3985 z m 67.7481,7.2968 c 3.584,0 7.0075,0.7668 10.2715,2.3028 0,3.2 -1.056,5.9518 -3.168,8.2558 -2.112,2.304 -5.0243,3.4571 -8.7363,3.4571 -2.56,0 -4.5749,-0.64 -6.0469,-1.92 -1.408,-1.216 -2.1133,-2.8167 -2.1133,-4.8007 0,-4.864 3.265,-7.295 9.793,-7.295 z m 214.6601,0 c 3.584,0 7.0075,0.7668 10.2715,2.3028 0,3.2 -1.0559,5.9518 -3.1679,8.2558 -2.1121,2.304 -5.0244,3.4571 -8.7364,3.4571 -2.56,0 -4.5749,-0.64 -6.0469,-1.92 -1.408,-1.216 -2.1132,-2.8167 -2.1132,-4.8007 0,-4.864 3.2649,-7.295 9.7929,-7.295 z"
         inkscape:connector-curvature="0" />
    </g>
    <g
       id="g4896"
       transform="matrix(0.04136168,0,0,0.04136168,-39.492213,45.812114)"
       style="opacity:1;filter:url(#filter5140)">
      <path
         style="opacity:1;fill:#b90032;fill-opacity:1;stroke:none;stroke-width:4.45026493;stroke-miterlimit:4;stroke-dasharray:none;stroke-opacity:1"
         d="m 3458.2414,-684.87272 c -180.9574,-7e-5 -327.653,39.64098 -327.6543,88.54098 v 342.5703 c 0.136,7.5843 3.8776,15.1324 11.1328,22.459 l -0.4043,0.0117 c 29.9983,14.7649 38.8711,32.5476 48.8535,50.1719 l 0.1231,-0.2324 c 37.6139,36.4397 145.4116,61.1283 267.1191,61.1777 0.2777,-1e-4 0.5526,-0.006 0.8301,-0.006 0.2776,3e-4 0.5524,0.006 0.8301,0.006 121.7075,-0.0494 229.5053,-24.738 267.1191,-61.1777 l 0.1231,0.2324 c 9.9825,-17.6243 18.8551,-35.407 48.8535,-50.1719 l -0.4043,-0.0117 c 7.2552,-7.3266 10.9968,-14.8747 11.1328,-22.459 v -342.5703 c 0,-48.9 -146.6969,-88.54105 -327.6543,-88.54098 z"
         id="path4861"
         inkscape:connector-curvature="0" />
      <g
         id="g4865"
         style="fill:#e4e4e4;fill-opacity:1"
         transform="translate(-2.1459962e-5)">
        <path
           inkscape:connector-curvature="0"
           id="path4863"
           d="m 3130.5871,-600.21748 v 292.2383 a 327.65427,103.15041 0 0 0 327.6543,103.1504 327.65427,103.15041 0 0 0 327.6543,-103.1504 v -292.2383 a 327.65427,103.15041 0 0 1 -327.6543,103.1504 327.65427,103.15041 0 0 1 -327.6543,-103.1504 z"
           style="opacity:1;fill:#e4e4e4;fill-opacity:1;stroke:none;stroke-width:4.80338907;stroke-miterlimit:4;stroke-dasharray:none;stroke-opacity:1" />
      </g>
      <path
         style="opacity:1;fill:#000000;fill-opacity:0.11560693;stroke:none;stroke-width:4.45026493;stroke-miterlimit:4;stroke-dasharray:none;stroke-opacity:1"
         d="m 3833.332,812.76367 c -180.9574,-7e-5 -327.653,39.64102 -327.6543,88.54102 v 46.41992 c 22.6013,-5.12728 43.2871,-15.59741 58.0469,-30.02539 8.518,-8.32644 15.1385,-17.83087 24.3711,-25.67188 4.6162,-3.9205 9.9029,-7.41534 15.9609,-9.83398 6.0578,-2.41863 12.928,-3.72341 19.6895,-3.20508 7.2013,0.55205 13.9637,3.13266 19.7656,6.5332 5.8019,3.40053 10.7483,7.60955 15.5996,11.83204 4.8513,4.22248 9.6705,8.50611 15.2793,12.10156 5.6087,3.59547 12.1054,6.50357 19.2188,7.54492 4.7764,0.69925 9.6979,0.54076 14.5097,0.0117 18.1318,-1.99197 34.6175,-9.0499 50.9082,-15.6211 22.9392,-9.2531 47.0557,-17.91554 72.7813,-19.22851 12.8628,-0.65649 25.9867,0.5935 37.9316,4.4043 11.9448,3.81078 22.661,10.26589 29.6348,18.79297 6.2124,7.59613 9.2682,16.47186 13.5098,24.86523 2.1207,4.19669 4.5674,8.31567 7.8164,12.03906 3.249,3.72338 7.3359,7.05149 12.2812,9.34571 4.6475,2.15605 9.9761,3.35545 15.3594,3.64062 5.3833,0.28517 10.8191,-0.3303 15.959,-1.62109 10.28,-2.58161 19.2208,-7.7911 26.789,-13.8418 15.1363,-12.10138 25.472,-27.75071 42.1133,-38.56055 9.2747,-6.02465 20.8125,-10.44298 32.8379,-10.23242 8.0122,0.14029 15.8054,2.32575 22.7539,5.4668 6.9483,3.14105 13.1318,7.21853 19.1133,11.41406 5.9813,4.19552 11.8164,8.54103 18.2344,12.31641 6.418,3.77536 13.4905,6.99217 21.2285,8.63281 4.4274,0.93871 9.0336,1.32686 13.6152,1.1914 v -28.71093 c 0,-48.9 -146.6969,-88.54109 -327.6543,-88.54102 z"
         id="path4867"
         inkscape:connector-curvature="0"
         transform="translate(-375.09015,-1497.637)" />
      <path
         style="opacity:1;fill:#eb6531;fill-opacity:1;stroke:none;stroke-width:1px;stroke-linecap:butt;stroke-linejoin:miter;stroke-opacity:1"
         d="m 3187.9289,-731.10999 c -37.681,81.83443 -87.8877,124.886 -138.7656,165.85938 40.5398,1.63499 81.7323,-11.21523 107.1894,-33.4375 9.5385,-8.32644 16.9522,-17.83087 27.291,-25.67188 5.1693,-3.9205 11.0894,-7.41534 17.8731,-9.83398 6.7836,-2.41863 14.4772,-3.72341 22.0488,-3.20508 8.0641,0.55205 15.6358,3.13266 22.1328,6.5332 6.497,3.40053 12.0362,7.60954 17.4688,11.83203 5.4325,4.22248 10.8286,8.50612 17.1094,12.10157 6.2807,3.59547 13.5558,6.50357 21.5214,7.54492 5.3487,0.69925 10.8617,0.54074 16.25,0.0117 20.3042,-1.99197 38.7635,-9.0499 57.0059,-15.6211 25.6876,-9.25311 52.6943,-17.91554 81.502,-19.22851 14.4039,-0.65649 29.1005,0.59349 42.4765,4.40429 13.3759,3.81078 25.3763,10.26589 33.1856,18.79297 6.9567,7.59614 10.3771,16.47187 15.1269,24.86524 2.3748,4.19669 5.1157,8.31567 8.7539,12.03906 3.6383,3.72338 8.2142,7.05148 13.752,9.3457 5.2043,2.15605 11.1709,3.35546 17.1992,3.64063 6.0283,0.28517 12.1154,-0.33031 17.8711,-1.6211 11.5116,-2.58161 21.525,-7.79109 30,-13.84179 16.9498,-12.10138 28.5231,-27.75071 47.1582,-38.56055 10.3859,-6.02465 23.3054,-10.44298 36.7715,-10.23242 8.9721,0.14029 17.6994,2.32575 25.4804,5.4668 7.7807,3.14105 14.7062,7.21853 21.4043,11.41406 6.698,4.19552 13.2311,8.54102 20.418,12.3164 7.1869,3.77536 15.1064,6.99218 23.7715,8.63282 10.5992,2.00684 22.1164,1.53753 32.3144,-1.31641 10.1979,-2.85391 19.0193,-8.07551 24.75,-14.65234 -68.8029,-35.4139 -109.2824,-79.71835 -138.4355,-127.57813 z"
         id="path4869"
         inkscape:connector-curvature="0"
         sodipodi:nodetypes="ccsccsccccccssccccsccsscccssccc" />
      <path
         style="opacity:1;fill:#f08e69;fill-opacity:1;stroke:none;stroke-width:4.12310553;stroke-miterlimit:4;stroke-dasharray:none;stroke-opacity:1"
         d="m 3176.9914,-861.85218 v 88.54102 a 281.25,88.541664 0 0 0 281.25,88.54102 281.25,88.541664 0 0 0 281.25,-88.54102 v -88.54102 h -281.25 z"
         id="path4871"
         inkscape:connector-curvature="0" />
      <path
         style="opacity:1;fill:url(#linearGradient4898);fill-opacity:1;stroke:none;stroke-width:4.12310553;stroke-miterlimit:4;stroke-dasharray:none;stroke-opacity:1"
         d="m 3187.9289,-748.78772 v 17.67773 c 33.781,36.97065 142.0092,64.01758 270.3125,64.01758 128.3031,0 236.5311,-27.04693 270.3125,-64.01758 v -17.67773 c -33.781,36.97064 -142.0094,64.01758 -270.3125,64.01758 -128.3033,0 -236.5312,-27.04694 -270.3125,-64.01758 z"
         id="path4873"
         inkscape:connector-curvature="0" />
      <g
         id="g4879"
         style="fill:#eb6531;fill-opacity:1">
        <g
           id="g4877"
           style="fill:#eb6531;fill-opacity:1">
          <ellipse
             style="opacity:1;fill:#eb6531;fill-opacity:1;stroke:none;stroke-width:4.12310553;stroke-miterlimit:4;stroke-dasharray:none;stroke-opacity:1"
             id="ellipse4875"
             cx="3458.2415"
             cy="-861.85284"
             rx="281.25"
             ry="88.541664" />
        </g>
      </g>
      <path
         style="font-style:normal;font-weight:normal;font-size:131.12120056px;line-height:1.25;font-family:sans-serif;letter-spacing:0.78999996px;word-spacing:0px;fill:url(#linearGradient4900);fill-opacity:1;stroke:none;stroke-width:3.27803016"
         d="m 3579.7872,-398.81622 c 0.031,2.53647 0.6658,4.76475 1.9023,6.67964 1.2363,1.91474 2.8816,3.34081 4.934,4.27353 1.9243,0.8828 4.0641,1.16452 6.4206,0.83864 2.3565,-0.32589 4.4834,-1.19767 6.3843,-2.60986 2.0906,-1.57324 3.6718,-3.44662 4.7424,-5.61292 0.7041,-1.39264 1.1879,-2.84402 1.4508,-4.35208 0,0 0,0 0,0 0.1605,-0.92079 0.2387,-1.86293 0.2343,-2.82609 -0.083,0.0124 -0.1652,0.0248 -0.2477,0.0372 -2.8519,0.42754 -5.7053,0.8445 -8.5602,1.25071 0.01,1.20309 -0.3661,2.32782 -1.1243,3.37169 -0.7588,0.97706 -1.7444,1.5506 -2.9568,1.7185 -1.2762,0.17673 -2.3018,-0.11849 -3.0764,-0.88311 -0.7753,-0.83148 -1.1697,-1.84931 -1.1818,-3.05182 -2.9724,0.40056 -5.9462,0.7893 -8.9215,1.16601 z m -340.3845,-14.20679 c 1.0564,23.11969 1.0502,45.9779 -0.019,68.57463 9.0339,2.48038 18.1224,4.74889 27.2562,6.82081 4.0319,0.91461 7.7813,0.94521 11.2316,0.0982 3.4501,-0.84695 6.2191,-2.58411 8.2938,-5.18887 2.0096,-2.48714 3.0397,-5.73169 3.0854,-9.71186 0.046,-3.98197 -0.968,-7.60079 -3.027,-10.86058 -2.0604,-3.19605 -4.8514,-5.77735 -8.3637,-7.76908 7e-4,-0.26041 0,-0.52084 0,-0.78128 2.5131,-0.74658 4.6864,-2.32449 6.5086,-4.73002 1.6964,-2.2327 2.5404,-5.12465 2.5201,-8.65776 -0.019,-3.27281 -0.9611,-6.51227 -2.828,-9.72313 -1.7397,-3.05847 -4.3034,-5.73889 -7.6908,-8.06495 -3.1961,-2.22513 -6.6967,-3.70193 -10.4911,-4.44648 -8.8519,-1.73698 -17.6792,-3.59083 -26.4784,-5.55961 z m 13.0949,14.53732 c 4.3501,0.94403 8.7088,1.85685 13.0758,2.73853 2.5767,0.52022 4.7284,1.75502 6.4475,3.71781 1.5923,1.87261 2.3989,3.98053 2.4168,6.32848 0.019,2.47695 -0.8201,4.33412 -2.5069,5.55657 -1.6869,1.22255 -3.8783,1.55344 -6.5664,0.98914 -4.2198,-0.88584 -8.4299,-1.80449 -12.6297,-2.75644 -0.029,-5.51288 -0.1084,-11.03758 -0.2371,-16.57409 z m 66.5843,18.74378 c -4.1355,-0.59209 -8.0075,-0.31963 -11.6207,0.82224 -3.4869,1.09619 -6.4255,3.04126 -8.8304,5.84959 2.6553,2.61215 5.3019,5.2075 7.9572,7.80063 1.4631,-1.539 3.2418,-2.70464 5.338,-3.50154 2.0326,-0.74086 4.2229,-0.93918 6.5748,-0.59834 3.3693,0.4883 6.0721,1.71595 8.1065,3.70399 1.9704,1.91308 2.9532,4.2785 2.9437,7.10874 -0,0.72425 -0.01,1.44849 -0.01,2.17272 -3.6301,-1.99799 -7.9235,-3.34764 -12.8807,-4.08197 -3.6854,-0.54592 -6.9838,-0.36871 -9.9057,0.5412 -2.9853,0.89973 -5.3383,2.47269 -7.0665,4.7353 -1.7276,2.26184 -2.6095,5.05552 -2.6491,8.3906 -0.059,4.96639 1.523,9.31847 4.7829,13.02833 3.3225,3.71975 7.5414,6.00507 12.6549,6.79932 3.1316,0.48641 5.8923,0.27048 8.2713,-0.63706 2.5721,-1.01125 4.5372,-2.35361 5.8936,-4.012 0.2558,0.0348 0.5116,0.0695 0.7674,0.10403 -0.012,1.71035 -0.024,3.42066 -0.038,5.13091 4.1328,0.56004 8.2704,1.08805 12.4118,1.58537 0.049,-10.33889 0.087,-20.67744 0.1162,-31.01565 0.019,-6.85136 -1.9222,-12.27561 -5.8104,-16.31672 -3.8917,-4.04469 -9.5621,-6.54339 -17.0097,-7.60969 z m 164.1401,9.2351 c -4.9126,0.14463 -9.3681,1.3929 -13.3705,3.76165 -1.1373,0.66478 -2.2046,1.40607 -3.2018,2.22458 0,0 0,0 0,0 -2.456,2.01465 -4.4863,4.49728 -6.0917,7.45674 -2.1927,4.02904 -3.2862,8.6039 -3.282,13.74177 0,5.20198 1.1056,9.81226 3.3046,13.82194 1.6098,2.94478 3.6443,5.40286 6.1023,7.36562 0,0 0,0 0,0 0.9982,0.79692 2.0663,1.5123 3.2043,2.14541 3.9399,2.19196 8.3975,3.23838 13.3743,3.11692 5.4289,-0.13249 10.1213,-1.50672 14.0741,-4.10036 1.3329,-0.87463 2.5635,-1.861 3.6912,-2.95797 0,0 0,0 0,0 2.2173,-2.1565 4.0385,-4.7408 5.4601,-7.74589 -1.8093,-0.7245 -3.6206,-1.45312 -5.4318,-2.185 -2.0339,-0.82279 -4.0688,-1.6506 -6.1041,-2.48347 -2.462,4.84702 -6.3514,7.36051 -11.6549,7.49642 -3.8169,0.0978 -6.986,-1.19303 -9.508,-3.8525 -2.5225,-2.59409 -3.7844,-6.17212 -3.7879,-10.71814 -0,-4.41657 1.2532,-7.98856 3.7719,-10.73835 2.5187,-2.74977 5.685,-4.17214 9.5024,-4.28057 5.3053,-0.15069 8.9995,1.94938 11.0816,6.36278 2.2279,-1.03474 4.4549,-2.07727 6.681,-3.12766 1.6489,-0.77803 3.2966,-1.56004 4.9437,-2.34648 -1.1752,-2.98019 -2.8384,-5.43677 -4.9876,-7.37698 -1.0771,-0.97347 -2.2763,-1.81709 -3.5975,-2.53232 -4.0212,-2.20494 -8.7437,-3.20802 -14.1737,-3.04814 z m 51.8381,-2.86063 c -4.1804,0.33681 -8.0975,1.49043 -11.7559,3.4655 -3.5304,1.90011 -6.5105,4.53634 -8.9455,7.92449 2.718,2.02068 5.4496,4.04567 8.1619,6.0512 1.476,-1.88723 3.2744,-3.46869 5.3941,-4.74857 2.0555,-1.20887 4.2723,-1.90479 6.6534,-2.09127 3.4108,-0.26713 6.1483,0.36559 8.216,1.91785 2.0023,1.49069 3.0119,3.66201 3.0244,6.5234 0,0.73229 0.01,1.46461 0.01,2.19696 -3.6695,-1.21001 -8.0122,-1.61248 -13.0363,-1.23545 -3.7355,0.28033 -7.0831,1.20828 -10.0472,2.79354 -3.0289,1.58959 -5.415,3.71846 -7.1576,6.40209 -1.7425,2.68349 -2.6157,5.70884 -2.6221,9.08714 -0.01,5.03121 1.6528,9.05506 4.9935,12.04907 3.4038,2.98921 7.6854,4.33103 12.8467,3.98203 3.1613,-0.21377 5.9392,-1.04739 8.3318,-2.49323 2.5866,-1.59352 4.5615,-3.38427 5.9205,-5.36037 0.2575,-0.0213 0.5149,-0.0428 0.7724,-0.0643 -0.01,1.73145 -0.014,3.46305 -0.023,5.19479 4.1562,-0.34458 8.31,-0.71574 12.4608,-1.11469 0.034,-10.47367 0.026,-20.94256 -0.024,-31.40667 -0.033,-6.93375 -2.0318,-11.99296 -5.9742,-15.20836 -3.9472,-3.21938 -9.6716,-4.47153 -17.1986,-3.86511 z m -180.7541,-0.42563 c -0.031,16.79366 -0.068,33.59098 -0.1087,50.39197 6.4999,0.68534 13.0072,1.29863 19.5188,1.84506 15.8449,1.32926 31.7223,2.25875 47.6145,2.81081 -0.014,-16.7873 -0.023,-33.57236 -0.027,-50.35519 -4.1642,-0.14592 -8.3267,-0.31881 -12.487,-0.51862 -0.01,12.93402 -0,25.86943 0,38.80625 -4.9721,-0.23605 -9.9416,-0.50985 -14.908,-0.8219 -0,-12.93973 0,-25.87803 0.016,-38.8149 -4.1229,-0.26199 -8.2433,-0.55045 -12.361,-0.86534 -0.02,12.93939 -0.031,25.8802 -0.034,38.82243 -2.6049,-0.19745 -5.2089,-0.40555 -7.8118,-0.6244 -2.3863,-0.20118 -4.7717,-0.41118 -7.1559,-0.63021 0.014,-12.94534 0.034,-25.88851 0.057,-38.82953 -4.11,-0.37954 -8.2159,-0.78494 -12.3172,-1.21643 z m 216.1428,-1.43922 c 0.1624,17.01267 0.2384,34.03472 0.2278,51.06616 4.2084,-0.46267 8.4133,-0.95525 12.614,-1.479 6.8184,-11.47368 13.2945,-22.61825 19.982,-34.24358 0.2536,-0.0378 0.5072,-0.0756 0.7608,-0.11363 -0.03,0.42341 -0.6509,9.31228 -0.6806,9.73569 0.063,7.28212 0.1299,14.56306 0.2017,21.84284 0.8763,-0.13134 1.7523,-0.26414 2.6282,-0.39841 3.2765,-0.50234 6.5498,-1.02497 9.8181,-1.57285 -0.2775,-16.99867 -0.4561,-34.01542 -0.5357,-51.05024 -3.2325,0.52061 -6.4761,1.02619 -9.73,1.51809 -0.8697,0.13131 -1.7396,0.26149 -2.6098,0.39055 -6.7427,11.72812 -13.1085,22.766 -19.9121,34.34512 -0.2553,0.0321 -0.5105,0.0641 -0.7658,0.096 0.01,-0.089 0.7044,-9.62682 0.711,-9.71581 -0.046,-7.3161 -0.1014,-14.63135 -0.1664,-21.94576 -4.1757,0.53393 -8.3569,1.04219 -12.5432,1.52478 z m 54.6057,-7.80837 c 0.01,4.07074 0.023,8.13932 0.051,12.20576 4.9916,-0.87264 9.9503,-1.79096 14.8731,-2.76334 0.065,12.86172 0.3723,25.67273 0.9227,38.43304 1.2962,-0.28425 2.5909,-0.5746 3.8842,-0.87136 2.829,-0.64989 5.6529,-1.31939 8.4609,-2.03426 -0.8142,-12.5913 -1.2359,-25.26691 -1.2649,-38.02682 4.7391,-1.02686 9.2867,-2.0689 13.6141,-3.19324 0.028,-3.94024 0.1415,-7.90467 0.3413,-11.89329 -6.9636,1.63317 -14.3667,3.14428 -22.1374,4.69973 -6.2013,1.21754 -12.4509,2.36209 -18.7447,3.44378 z m -372.3288,12.33275 c 4.5369,1.05895 9.0867,2.07566 13.6487,3.05111 3.188,0.68168 5.6861,2.03873 7.4906,4.10031 1.7412,1.98253 2.5995,4.33559 2.5646,7.06493 -0.034,2.66294 -0.9167,4.66639 -2.6431,5.99626 -1.662,1.2779 -4.0997,1.57209 -7.2964,0.86292 -4.7008,-1.04283 -9.3888,-2.13449 -14.0626,-3.27668 0.1576,-5.91912 0.257,-11.85207 0.2982,-17.79885 z m 66.5627,20.00047 c 3.5635,0.52037 6.9674,1.78217 10.2145,3.79691 -0.016,3.28875 -1.0854,5.9791 -3.2084,8.05503 -2.1225,2.07536 -5.0398,2.84921 -8.7384,2.29475 -2.5507,-0.38236 -4.5501,-1.35212 -6.0001,-2.89437 -1.3875,-1.46705 -2.0707,-3.22055 -2.052,-5.25332 0.046,-4.99259 3.2963,-6.94644 9.7844,-5.999 z m 216.221,6.60586 c 3.6066,-0.27472 7.0494,0.24013 10.3304,1.55526 0,3.32701 -1.0598,6.28307 -3.1887,8.85179 -2.1289,2.56866 -5.0656,3.99829 -8.8044,4.26827 -2.5787,0.18619 -4.6074,-0.34123 -6.0865,-1.56996 -1.4153,-1.167 -2.1214,-2.78157 -2.1178,-4.83838 0.01,-5.04934 3.2956,-7.76644 9.867,-8.26698 z"
         id="path4881"
         inkscape:path-effect="#path-effect4883"
         inkscape:original-d="m 3582.4781,-414.48207 c 0,2.432 0.6082,4.641 1.8242,6.625 1.216,1.984 2.8485,3.5511 4.8965,4.7031 1.92,1.088 4.0637,1.6328 6.4317,1.6328 2.368,0 4.5116,-0.5448 6.4316,-1.6328 2.112,-1.216 3.7128,-2.7831 4.8008,-4.7031 1.152,-1.984 1.7285,-4.193 1.7285,-6.625 h -8.832 c 0,1.152 -0.3844,2.1762 -1.1524,3.0722 -0.768,0.832 -1.7605,1.2481 -2.9765,1.2481 -1.28,0 -2.3043,-0.4161 -3.0723,-1.2481 -0.768,-0.896 -1.1523,-1.9202 -1.1523,-3.0722 z m -339.9863,1.7285 v 68.7363 h 27.8398 c 4.096,0 7.8722,-0.7687 11.3282,-2.3047 3.456,-1.536 6.2078,-3.7747 8.2558,-6.7187 1.984,-2.816 2.9766,-6.1761 2.9766,-10.0801 0,-3.904 -1.056,-7.2641 -3.168,-10.0801 -2.112,-2.752 -4.9609,-4.7688 -8.5449,-6.0488 v -0.7676 c 2.56,-1.216 4.769,-3.1674 6.625,-5.8554 1.728,-2.496 2.5918,-5.4737 2.5918,-8.9297 0,-3.2 -0.9292,-6.2075 -2.7852,-9.0235 -1.728,-2.688 -4.2877,-4.8633 -7.6797,-6.5273 -3.2,-1.6 -6.7185,-2.4004 -10.5585,-2.4004 z m 12.9609,11.6152 h 13.3438 c 2.624,0 4.7993,0.8004 6.5273,2.4004 1.6,1.536 2.4004,3.4558 2.4004,5.7598 0,2.432 -0.8638,4.4171 -2.5918,5.9531 -1.728,1.536 -3.9687,2.3027 -6.7207,2.3027 h -12.959 z m 67.459,6.625 c -4.16,0 -8.0629,0.8321 -11.7109,2.4961 -3.52,1.6 -6.4958,3.9675 -8.9278,7.1035 l 8.0625,6.336 c 1.472,-1.728 3.265,-3.1366 5.377,-4.2246 2.048,-1.024 4.255,-1.5352 6.623,-1.5352 3.392,0 6.1122,0.8321 8.1602,2.4961 1.984,1.6 2.9766,3.7754 2.9766,6.5273 v 2.1133 c -3.648,-1.472 -7.969,-2.209 -12.961,-2.209 -3.712,0 -7.0384,0.6717 -9.9824,2.0157 -3.008,1.344 -5.3775,3.2637 -7.1055,5.7597 -1.728,2.496 -2.5918,5.3767 -2.5918,8.6407 0,4.864 1.6642,8.8323 4.9922,11.9043 3.392,3.072 7.6476,4.6074 12.7676,4.6074 3.136,0 5.8898,-0.6082 8.2578,-1.8242 2.56,-1.344 4.5115,-2.9112 5.8555,-4.7032 h 0.7676 v 4.9922 h 12.3847 v -30.1445 c 0,-6.656 -1.9534,-11.712 -5.8574,-15.168 -3.904,-3.456 -9.5999,-5.1836 -17.0879,-5.1836 z m 163.2402,0 c -4.864,0 -9.28,1.1194 -13.248,3.3594 -3.904,2.176 -6.9768,5.2805 -9.2168,9.3125 -2.176,3.904 -3.2637,8.3518 -3.2637,13.3438 0,5.056 1.0877,9.5354 3.2637,13.4394 2.24,4.032 5.3128,7.1365 9.2168,9.3125 3.904,2.176 8.32,3.2637 13.248,3.2637 5.3761,0 10.016,-1.1828 13.92,-3.5508 3.904,-2.368 6.9114,-5.6964 9.0234,-9.9844 l -11.4238,-4.9922 c -2.432,4.608 -6.2716,6.9121 -11.5196,6.9121 -3.776,0 -6.9122,-1.3115 -9.4082,-3.9355 -2.496,-2.56 -3.7441,-6.0488 -3.7441,-10.4648 0,-4.288 1.2481,-7.7432 3.7441,-10.3672 2.496,-2.624 5.6322,-3.9375 9.4082,-3.9375 5.2481,0 8.8954,2.1773 10.9434,6.5293 l 11.5195,-4.8008 c -1.728,-4.416 -4.5432,-7.7444 -8.4472,-9.9844 -3.968,-2.304 -8.6397,-3.4551 -14.0157,-3.4551 z m 51.42,0 c -4.16,0 -8.063,0.8321 -11.711,2.4961 -3.52,1.6 -6.4957,3.9675 -8.9277,7.1035 l 8.0625,6.336 c 1.472,-1.728 3.265,-3.1366 5.377,-4.2246 2.048,-1.024 4.255,-1.5352 6.623,-1.5352 3.392,0 6.1122,0.8321 8.1602,2.4961 1.984,1.6 2.9765,3.7754 2.9765,6.5273 v 2.1133 c -3.648,-1.472 -7.9689,-2.209 -12.9609,-2.209 -3.712,0 -7.0384,0.6717 -9.9824,2.0157 -3.008,1.344 -5.3775,3.2637 -7.1055,5.7597 -1.728,2.496 -2.5918,5.3767 -2.5918,8.6407 0,4.864 1.6642,8.8323 4.9922,11.9043 3.392,3.072 7.6476,4.6074 12.7676,4.6074 3.136,0 5.8878,-0.6082 8.2558,-1.8242 2.56,-1.344 4.5134,-2.9112 5.8574,-4.7032 h 0.7676 v 4.9922 h 12.3848 v -30.1445 c 0,-6.656 -1.9534,-11.712 -5.8574,-15.168 -3.904,-3.456 -9.5999,-5.1836 -17.0879,-5.1836 z m -179.3535,1.5352 v 48.9609 h 66.625 v -48.9609 h -12.3848 v 37.7285 h -14.7832 v -37.7285 h -12.2891 v 37.7285 h -14.8789 v -37.7285 z m 214.6601,0 v 48.9609 h 12.5762 l 20.2558,-30.1445 h 0.7676 l -0.7676,9.2168 v 20.9277 h 12.4805 v -48.9609 h -12.4805 l -20.2558,30.2402 h -0.7676 l 0.7676,-9.2148 v -21.0254 z m 55.084,0 v 11.7129 h 15.3594 v 37.248 h 12.5761 v -37.248 h 15.2657 v -11.7129 z m -372.5098,19.3926 h 14.0157 c 3.264,0 5.8236,0.8321 7.6796,2.4961 1.792,1.6 2.6875,3.7436 2.6875,6.4316 0,2.624 -0.8638,4.7676 -2.5918,6.4316 -1.664,1.6 -4.1285,2.4004 -7.3925,2.4004 h -14.3985 z m 67.7481,7.2968 c 3.584,0 7.0075,0.7668 10.2715,2.3028 0,3.2 -1.056,5.9518 -3.168,8.2558 -2.112,2.304 -5.0243,3.4571 -8.7363,3.4571 -2.56,0 -4.5749,-0.64 -6.0469,-1.92 -1.408,-1.216 -2.1133,-2.8167 -2.1133,-4.8007 0,-4.864 3.265,-7.295 9.793,-7.295 z m 214.6601,0 c 3.584,0 7.0075,0.7668 10.2715,2.3028 0,3.2 -1.0559,5.9518 -3.1679,8.2558 -2.1121,2.304 -5.0244,3.4571 -8.7364,3.4571 -2.56,0 -4.5749,-0.64 -6.0469,-1.92 -1.408,-1.216 -2.1132,-2.8167 -2.1132,-4.8007 0,-4.864 3.2649,-7.295 9.7929,-7.295 z"
         inkscape:connector-curvature="0" />
    </g>
  </g>
</svg>
