<?xml version="1.0" encoding="UTF-8" standalone="no"?>
<!-- Created with Inkscape (http://www.inkscape.org/) -->

<svg
   xmlns:dc="http://purl.org/dc/elements/1.1/"
   xmlns:cc="http://creativecommons.org/ns#"
   xmlns:rdf="http://www.w3.org/1999/02/22-rdf-syntax-ns#"
   xmlns:svg="http://www.w3.org/2000/svg"
   xmlns="http://www.w3.org/2000/svg"
   xmlns:sodipodi="http://sodipodi.sourceforge.net/DTD/sodipodi-0.dtd"
   xmlns:inkscape="http://www.inkscape.org/namespaces/inkscape"
   width="37.804909mm"
   height="24.384569mm"
   viewBox="0 0 133.9544 86.402016"
   id="svg8730"
   version="1.1"
   inkscape:version="0.91 r13725"
   sodipodi:docname="jammie.svg">
  <defs
     id="defs8732" />
  <sodipodi:namedview
     id="base"
     pagecolor="#ffffff"
     bordercolor="#666666"
     borderopacity="1.0"
     inkscape:pageopacity="0.0"
     inkscape:pageshadow="2"
     inkscape:zoom="0.32"
     inkscape:cx="273.71047"
     inkscape:cy="-47.560058"
     inkscape:document-units="px"
     inkscape:current-layer="layer1"
     showgrid="false"
     showborder="true"
     inkscape:window-width="1366"
     inkscape:window-height="705"
     inkscape:window-x="0"
     inkscape:window-y="30"
     inkscape:window-maximized="1"
     fit-margin-top="0"
     fit-margin-left="0"
     fit-margin-right="0"
     fit-margin-bottom="0" />
  <metadata
     id="metadata8735">
    <rdf:RDF>
      <cc:Work
         rdf:about="">
        <dc:format>image/svg+xml</dc:format>
        <dc:type
           rdf:resource="http://purl.org/dc/dcmitype/StillImage" />
        <dc:title></dc:title>
      </cc:Work>
    </rdf:RDF>
  </metadata>
  <g
     inkscape:label="Layer 1"
     inkscape:groupmode="layer"
     id="layer1"
     transform="translate(1182.6022,-306.0362)">
    <path
       id="rect7071"
       style="opacity:1;fill:#131313;fill-opacity:1;stroke:none;stroke-width:20;stroke-linecap:round;stroke-linejoin:round;stroke-miterlimit:4;stroke-dasharray:none;stroke-opacity:1"
       d="m -1131.2916,369.57642 c -1.6963,3.75956 -4.7289,5.51817 -7.2485,6.15458 l 7.2485,-0.0861 z m -21.0702,-19.35691 c 3.1307,-1.31836 7.369,-2.04214 12.4155,-2.04214 l 7.3167,0 c -0.5895,-3.59657 -3.3503,-5.39477 -8.281,-5.39477 -1.983,0 -3.993,0.33683 -6.0296,1.01118 -2.0366,0.61817 -3.9898,1.45878 -5.4368,2.58271 z m 15.2923,7.14766 c -3.698,0 -5.5474,1.2923 -5.5474,3.87733 0,1.06773 0.3747,1.96683 1.125,2.69738 0.8039,0.67436 1.8758,1.01119 3.2157,1.01119 1.2863,0 2.4385,-0.36501 3.4568,-1.09556 1.0183,-0.73055 1.769,-1.82692 2.2514,-3.28802 l 0,-3.20232 z m 42.4376,-29.07822 c -5.0378,0 -9.1904,1.715 -12.4596,5.14298 l 0,-4.29921 -17.2853,0 0,2.33979 c 1.4311,0.73767 2.7242,1.61277 3.868,2.63846 4.0731,3.59657 6.1099,9.16024 6.1099,16.69056 l 0,24.43986 8.1913,0 0,-22.50589 c 0,-2.92221 0.5085,-5.05857 1.5268,-6.40729 1.0719,-1.34871 2.465,-2.02237 4.18,-2.02237 3.2693,0 4.9046,2.64094 4.9046,7.9234 l 0,23.01215 18.1679,0 0,-22.50589 c 0,-2.92221 0.5098,-5.05857 1.5281,-6.40729 1.0719,-1.34871 2.465,-2.02237 4.18,-2.02237 3.2693,0 4.9046,2.64094 4.9046,7.9234 l 0,23.01215 18.1678,0 0,-26.30017 c 0,-6.91216 -1.6072,-12.08131 -4.8228,-15.50929 -3.1621,-3.42798 -7.3963,-5.14298 -12.7021,-5.14298 -3.0013,0 -5.7621,0.61863 -8.281,1.85496 -2.519,1.18012 -4.6628,2.89377 -6.4314,5.14164 -1.5007,-2.36026 -3.4291,-4.10209 -5.7872,-5.22602 -2.3582,-1.18012 -5.0119,-1.77058 -7.9596,-1.77058 z m -66.6672,-22.25275 c -3.2692,0 -5.9216,0.92728 -7.9582,2.78176 -1.983,1.79829 -2.9746,4.1024 -2.9746,6.91222 0,2.80982 0.9916,5.1421 2.9746,6.99659 2.0366,1.79828 4.689,2.69739 7.9582,2.69739 3.3229,0 5.9766,-0.92728 7.9596,-2.78177 1.983,-1.91067 2.9746,-4.32751 2.9746,-7.24972 0,-2.75363 -0.9916,-5.00138 -2.9746,-6.74346 -1.983,-1.74209 -4.6367,-2.61301 -7.9596,-2.61301 z m -9.0832,23.09652 0,43.58004 c 0,1.79829 -0.3493,3.11875 -1.046,3.9617 -0.6967,0.89914 -1.6081,1.34869 -2.7336,1.34869 -1.447,0 -2.8133,-0.365 -4.0996,-1.09556 l -4.3407,13.23379 c 2.7869,1.5173 6.5112,2.27684 11.1739,2.27684 6.0025,0 10.6917,-1.77001 14.0682,-5.31039 3.0657,-3.11416 4.7584,-7.24225 5.084,-12.37663 -0.1292,-0.0602 -0.2632,-0.11466 -0.3897,-0.17813 -2.4118,-1.29252 -4.2612,-3.00617 -5.5475,-5.14164 -1.2326,-2.19166 -1.8482,-4.63667 -1.8482,-7.3341 0,-4.55191 1.6607,-8.0074 4.9836,-10.36765 0.8435,-0.5992 1.7988,-1.12261 2.8634,-1.56968 l 0,-3.80768 -5.7577,-12.49315 c 1.6885,-1.09244 3.6116,-2.01759 5.7577,-2.78176 l 0,-1.94469 -18.1678,0 z"
       inkscape:connector-curvature="0"
       inkscape:export-xdpi="76"
       inkscape:export-ydpi="76" />
  </g>
</svg>
