<?xml version="1.0" encoding="UTF-8" standalone="no"?>
<!-- Created with Inkscape (http://www.inkscape.org/) -->

<svg
   xmlns:dc="http://purl.org/dc/elements/1.1/"
   xmlns:cc="http://creativecommons.org/ns#"
   xmlns:rdf="http://www.w3.org/1999/02/22-rdf-syntax-ns#"
   xmlns:svg="http://www.w3.org/2000/svg"
   xmlns="http://www.w3.org/2000/svg"
   xmlns:sodipodi="http://sodipodi.sourceforge.net/DTD/sodipodi-0.dtd"
   xmlns:inkscape="http://www.inkscape.org/namespaces/inkscape"
   width="70.556778mm"
   height="99.026245mm"
   viewBox="0 0 70.556778 99.026245"
   version="1.1"
   id="svg8"
   inkscape:version="0.92.2 (unknown)"
   sodipodi:docname="cherry.svg"
   style="enable-background:new">
  <defs
     id="defs2">
    <filter
       inkscape:collect="always"
       style="color-interpolation-filters:sRGB"
       id="filter826">
      <feBlend
         inkscape:collect="always"
         mode="lighten"
         in2="BackgroundImage"
         id="feBlend828" />
    </filter>
  </defs>
  <sodipodi:namedview
     id="base"
     pagecolor="#c8c8c8"
     bordercolor="#666666"
     borderopacity="1.0"
     inkscape:pageopacity="0"
     inkscape:pageshadow="2"
     inkscape:zoom="0.70710678"
     inkscape:cx="-105.32589"
     inkscape:cy="125.14794"
     inkscape:document-units="mm"
     inkscape:current-layer="g898"
     showgrid="false"
     inkscape:window-width="1366"
     inkscape:window-height="735"
     inkscape:window-x="42"
     inkscape:window-y="900"
     inkscape:window-maximized="1"
     showborder="false"
     fit-margin-top="0"
     fit-margin-left="0"
     fit-margin-right="0"
     fit-margin-bottom="0" />
  <metadata
     id="metadata5">
    <rdf:RDF>
      <cc:Work
         rdf:about="">
        <dc:format>image/svg+xml</dc:format>
        <dc:type
           rdf:resource="http://purl.org/dc/dcmitype/StillImage" />
        <dc:title></dc:title>
      </cc:Work>
    </rdf:RDF>
  </metadata>
  <g
     inkscape:label="Layer 1"
     inkscape:groupmode="layer"
     id="layer1"
     style="opacity:0.95999995;filter:url(#filter826)"
     transform="translate(45.038063,-287.18843)">
    <path
       style="opacity:1;fill:#ffab11;fill-opacity:1;stroke:none;stroke-width:7.55905533;stroke-linecap:round;stroke-linejoin:round;stroke-miterlimit:4;stroke-dasharray:none;stroke-dashoffset:36.47244263;stroke-opacity:1;paint-order:stroke fill markers"
       d="m -40.5,1213.5195 a 107.5,107.5 0 0 0 -23.603516,2.7617 A 110.5,110.5 0 0 0 -134,1319.0195 110.5,110.5 0 0 0 -38.0625,1428.4336 107.5,107.5 0 0 0 67,1321.0195 a 107.5,107.5 0 0 0 -107.5,-107.5 z"
       transform="scale(0.26458333)"
       id="circle860"
       inkscape:connector-curvature="0" />
    <circle
       style="opacity:1;fill:none;fill-opacity:1;stroke:#754c00;stroke-width:2;stroke-linecap:round;stroke-linejoin:round;stroke-miterlimit:4;stroke-dasharray:none;stroke-dashoffset:36.47244263;stroke-opacity:0.96078431;paint-order:stroke fill markers"
       id="path858"
       cx="-10.715625"
       cy="349.51978"
       r="28.442707" />
    <path
       style="fill:#7a5001;fill-opacity:1;stroke:none;stroke-width:0.26458332px;stroke-linecap:butt;stroke-linejoin:miter;stroke-opacity:1"
       d="m -5.8208333,321.01094 c 3.8379036,-5.56536 9.3666006,-9.89782 8.4666666,-16.33802 l 5.886979,0.0662 c -4.091361,7.55729 -8.0444117,11.16992 -12.6338539,16.73489 z"
       id="path865"
       inkscape:connector-curvature="0"
       sodipodi:nodetypes="ccccc" />
    <g
       id="g877"
       transform="matrix(1.0630456,0,0,1.0472997,0.41793958,-15.019571)">
      <g
         id="g872"
         transform="matrix(0.9963808,-0.0862798,0.08374276,0.9963808,-27.307522,0.59048734)">
        <g
           id="g890">
          <path
             style="opacity:0.95999995;fill:#06ba52;fill-opacity:1;stroke:#00672b;stroke-width:2;stroke-linecap:butt;stroke-linejoin:miter;stroke-miterlimit:4;stroke-dasharray:none;stroke-opacity:1;filter:url(#filter826)"
             d="m -8.8635416,316.31458 c -5.1262644,-0.43661 -13.3595014,-6.30093 -9.0619794,-17.3302 6.608643,0.48633 13.4160023,7.46046 9.0619794,17.3302 z"
             id="path867"
             inkscape:connector-curvature="0"
             sodipodi:nodetypes="ccc" />
          <path
             sodipodi:nodetypes="ccccc"
             inkscape:connector-curvature="0"
             id="path869"
             d="m -10.08724,316.11614 c -1.422135,-3.77297 -3.730591,-7.39539 -5.152726,-11.64166 2.794391,4.37154 4.73522,7.26688 6.8063723,10.58333 l -0.4299479,1.25677 z"
             style="fill:#00672b;fill-opacity:1;stroke:none;stroke-width:0.26458332px;stroke-linecap:butt;stroke-linejoin:miter;stroke-opacity:1" />
        </g>
      </g>
      <g
         transform="matrix(0.9963808,-0.0862798,0.08374276,0.9963808,3.1392808,13.273863)"
         id="g898">
        <g
           id="g896"
           transform="matrix(-0.33737311,0.75346983,-0.73131424,-0.33737312,202.04571,418.42397)">
          <path
             sodipodi:nodetypes="ccc"
             inkscape:connector-curvature="0"
             id="path892"
             d="m -8.8635416,316.31458 c -5.1262644,-0.43661 -13.3595014,-6.30093 -9.0619794,-17.3302 6.608643,0.48633 13.4160023,7.46046 9.0619794,17.3302 z"
             style="opacity:0.95999995;fill:#06ba52;fill-opacity:1;stroke:#00672b;stroke-width:2;stroke-linecap:butt;stroke-linejoin:miter;stroke-miterlimit:4;stroke-dasharray:none;stroke-opacity:1;filter:url(#filter826)" />
          <path
             style="fill:#00672b;fill-opacity:1;stroke:none;stroke-width:0.26458332px;stroke-linecap:butt;stroke-linejoin:miter;stroke-opacity:1"
             d="m -10.08724,316.11614 c -1.422135,-3.77297 -3.730591,-7.39539 -5.152726,-11.64166 2.794391,4.37154 4.73522,7.26688 6.8063723,10.58333 l -0.4299479,1.25677 z"
             id="path894"
             inkscape:connector-curvature="0"
             sodipodi:nodetypes="ccccc" />
        </g>
      </g>
    </g>
    <g
       id="g885"
       transform="matrix(0.53678936,0.30991548,-0.30991548,0.53678936,99.879022,140.50438)">
      <path
         style="fill:#06ba52;fill-opacity:1;stroke:#00672b;stroke-width:2;stroke-linecap:butt;stroke-linejoin:miter;stroke-miterlimit:4;stroke-dasharray:none;stroke-opacity:1"
         d="m -8.8635416,316.31458 c -5.1262644,-0.43661 -13.3595014,-6.30093 -9.0619794,-17.3302 6.608643,0.48633 13.4160023,7.46046 9.0619794,17.3302 z"
         id="path879"
         inkscape:connector-curvature="0"
         sodipodi:nodetypes="ccc" />
      <g
         id="g883">
        <path
           sodipodi:nodetypes="ccccc"
           inkscape:connector-curvature="0"
           id="path881"
           d="m -10.08724,316.11614 c -1.422135,-3.77297 -3.730591,-7.39539 -5.152726,-11.64166 2.794391,4.37154 4.73522,7.26688 6.8063723,10.58333 l -0.4299479,1.25677 z"
           style="fill:#00672b;fill-opacity:1;stroke:none;stroke-width:0.26458332px;stroke-linecap:butt;stroke-linejoin:miter;stroke-opacity:1" />
      </g>
    </g>
  </g>
</svg>
