<?xml version="1.0" encoding="iso-8859-1"?>
<!-- Generator: Adobe Illustrator 19.0.0, SVG Export Plug-In . SVG Version: 6.00 Build 0)  -->
<svg version="1.1" id="Layer_1" xmlns="http://www.w3.org/2000/svg" xmlns:xlink="http://www.w3.org/1999/xlink" x="0px" y="0px"
	 viewBox="0 0 512.001 512.001" style="enable-background:new 0 0 512.001 512.001;" xml:space="preserve">
<g>
	<g>
		<path d="M456.891,266.116h-40.079c-4.151,0-7.515,3.364-7.515,7.515c0,4.151,3.364,7.515,7.515,7.515h40.079
			c4.151,0,7.515-3.364,7.515-7.515C464.406,269.479,461.042,266.116,456.891,266.116z"/>
	</g>
</g>
<g>
	<g>
		<path d="M384.748,266.116H267.957c-4.151,0-7.515,3.364-7.515,7.515c0,4.151,3.365,7.515,7.515,7.515h116.791
			c4.151,0,7.515-3.364,7.515-7.515C392.263,269.479,388.899,266.116,384.748,266.116z"/>
	</g>
</g>
<g>
	<g>
		<path d="M456.891,306.195H267.957c-4.151,0-7.515,3.364-7.515,7.515c0,4.151,3.364,7.515,7.515,7.515h188.934
			c4.151,0,7.515-3.364,7.515-7.515C464.406,309.559,461.042,306.195,456.891,306.195z"/>
	</g>
</g>
<g>
	<g>
		<path d="M456.891,346.275H332.084c-4.151,0-7.515,3.364-7.515,7.515s3.364,7.515,7.515,7.515h124.806
			c4.151,0,7.515-3.364,7.515-7.515S461.042,346.275,456.891,346.275z"/>
	</g>
</g>
<g>
	<g>
		<path d="M300.021,346.275h-32.064c-4.151,0-7.515,3.364-7.515,7.515s3.364,7.515,7.515,7.515h32.064
			c4.151,0,7.515-3.364,7.515-7.515S304.172,346.275,300.021,346.275z"/>
	</g>
</g>
<g>
	<g>
		<path d="M200.381,124.777c-4.447-4.447-10.361-6.896-16.65-6.896c-6.226,0-12.096,2.405-16.528,6.774
			c-0.154,0.151-0.303,0.312-0.443,0.477c-1.676,1.967-8.083,10.934-20.12,43.743c-1.007,2.748-0.328,5.832,1.742,7.902
			c2.048,2.048,5.18,2.738,7.902,1.74c32.809-12.038,41.776-18.443,43.742-20.12c0.165-0.141,0.325-0.289,0.477-0.443
			C209.55,148.776,209.496,133.892,200.381,124.777z M190.082,147.105c-1.154,0.837-6.685,4.503-23.289,11.263
			c6.807-16.724,10.473-22.209,11.253-23.282c3.32-2.984,8.554-2.835,11.708,0.319C192.953,138.604,193.068,143.768,190.082,147.105
			z"/>
	</g>
</g>
<g>
	<g>
		<path d="M84.67,168.874c-12.041-32.819-18.446-41.779-20.122-43.744c-0.14-0.164-0.288-0.323-0.442-0.475
			c-9.178-9.046-24.063-8.992-33.178,0.121c-4.447,4.447-6.896,10.361-6.896,16.65c0,6.226,2.406,12.096,6.773,16.527
			c0.151,0.154,0.311,0.302,0.474,0.441c1.965,1.677,10.926,8.081,43.746,20.122C80.923,180.679,86.83,174.759,84.67,168.874z
			 M41.239,147.115c-3.169-3.526-2.771-9.154,0.858-12.202c3.195-2.684,8.048-2.621,11.161,0.166
			c0.836,1.152,4.502,6.682,11.262,23.288C47.789,151.556,42.308,147.891,41.239,147.115z"/>
	</g>
</g>
<g>
	<g>
		<path d="M75.027,240.489c-32.809,12.038-41.776,18.443-43.742,20.12c-0.165,0.141-0.325,0.289-0.477,0.443
			c-9.047,9.179-8.993,24.063,0.122,33.178c4.447,4.447,10.36,6.897,16.649,6.897c6.226,0,12.096-2.405,16.528-6.774
			c0.154-0.151,0.303-0.312,0.443-0.477c1.676-1.967,8.083-10.934,20.12-43.743C86.83,244.242,80.915,238.33,75.027,240.489z
			 M53.266,283.922c-3.32,2.984-8.554,2.835-11.708-0.319c-3.199-3.2-3.314-8.364-0.328-11.7c1.154-0.837,6.685-4.503,23.289-11.263
			C57.71,277.364,54.045,282.849,53.266,283.922z"/>
	</g>
</g>
<g>
	<g>
		<path d="M200.505,261.054c-0.151-0.154-0.311-0.302-0.474-0.441c-1.965-1.677-10.926-8.081-43.746-20.122
			c-5.889-2.158-11.805,3.751-9.644,9.642c12.041,32.819,18.446,41.779,20.122,43.744c0.14,0.164,0.288,0.323,0.442,0.475
			c4.568,4.502,10.547,6.749,16.526,6.749c6.036,0,12.073-2.293,16.652-6.871c4.447-4.447,6.896-10.361,6.896-16.65
			C207.278,271.354,204.872,265.484,200.505,261.054z M189.754,283.602c-3.198,3.198-8.363,3.315-11.7,0.327
			c-0.836-1.152-4.502-6.682-11.262-23.288c16.73,6.81,22.212,10.476,23.281,11.252
			C193.058,275.214,192.909,280.447,189.754,283.602z"/>
	</g>
</g>
<g>
	<g>
		<path d="M504.986,186.458h-1.002v-65.129c0-8.564-6.466-15.03-15.03-15.03H215.52c-0.078,0-0.153,0.009-0.231,0.012
			c-17.952-15.925-45.143-16.044-63.099-0.012h-12.929v-1.002c0-4.151-3.424-7.014-7.574-7.014H99.623
			c-4.15,0-7.456,2.863-7.456,7.014v1.002H79.123c-8.709-8.016-19.799-12.215-31.544-12.215c-12.713,0-24.665,4.825-33.654,13.814
			c-18.557,18.558-18.527,48.69,0.03,67.246c1.54,1.54,3.064,3.07,6.07,4.695v6.618h-0.56c-4.15,0-7.456,2.863-7.456,7.014v32.064
			c0,4.151,3.306,8.016,7.456,8.016h0.56v5.616c-3.006,1.624-4.53,3.216-6.07,4.757C4.966,252.915,0,265.103,0,277.817
			c0,12.713,4.943,24.872,13.933,33.89h0.026c1.899,1.002,4.063,3.12,6.067,4.63v77.533c0,8.564,6.908,16.032,15.472,16.032h56.671
			c0,4.151,3.306,8.016,7.456,8.016h32.064c4.15,0,7.574-3.865,7.574-8.016h349.693c8.564,0,15.03-7.468,15.03-16.032v-44.583
			c0-4.151-3.364-7.515-7.515-7.515c-4.151,0-7.515,3.364-7.515,7.515v44.583c0,0.276,0.276,1.002,0,1.002H139.262V294.464
			c4.008,7.36,7.403,13.327,10.846,16.769c8.989,8.991,20.927,13.941,33.64,13.941s24.657-4.95,33.647-13.94
			c18.557-18.558,18.553-48.501-0.004-67.059c-3.443-3.443-9.415-7.619-16.774-10.625h288.34v87.847
			c0,4.151,3.364,7.515,7.515,7.515c4.151,0,7.515-3.364,7.515-7.515V233.55h1.002c4.151,0,7.014-3.865,7.014-8.016v-32.064
			C512,189.321,509.137,186.458,504.986,186.458z M107.198,113.313h16.975c0,0,0.029,46.82,0.051,47.054
			c-3.192,8.649-6.095,16.9-8.538,24.292c-2.434-7.365-5.482-15.83-8.488-24.446V113.313z M24.553,118.401
			c6.151-6.151,14.328-9.539,23.027-9.539s16.876,3.388,23.027,9.539c8.996,8.996,23.864,49.208,33.602,79.655
			c-30.446-9.738-70.659-24.607-79.655-33.603C11.857,151.757,11.857,131.097,24.553,118.401z M90.811,210.004
			c-7.392,2.443-25.015,8.517-25.255,8.517H27.039v-17.034h39.327C74.982,204.493,83.446,207.571,90.811,210.004z M92.168,394.871
			H35.496c-0.276,0-0.442-0.727-0.442-1.002v-70.412c4.008,1.121,8.317,1.694,12.554,1.694c12.188,0,24.39-4.639,33.67-13.919
			c3.443-3.443,6.882-9.411,10.89-16.769V394.871z M70.606,300.606c-12.697,12.698-33.357,12.696-46.053,0
			c-6.15-6.15-9.538-14.328-9.538-23.026c0-8.699,3.387-16.876,9.538-23.026c8.997-8.997,49.209-23.864,79.656-33.603
			C94.473,251.395,79.607,291.606,70.606,300.606z M124.231,402.887h-17.034V258.794c3.006-8.616,6.083-17.082,8.517-24.446
			c2.434,7.365,5.511,15.83,8.517,24.446V402.887z M160.705,118.401c6.349-6.349,14.688-9.523,23.027-9.523
			c8.34,0,16.679,3.174,23.027,9.523c6.15,6.15,9.538,14.328,9.538,23.026c0,8.699-3.387,16.876-9.538,23.026
			c-8.997,8.997-49.209,23.864-79.656,33.603C136.838,167.612,151.705,127.402,160.705,118.401z M206.758,254.554
			c12.696,12.696,12.696,33.356,0,46.052c-6.151,6.151-14.328,9.539-23.027,9.539s-16.876-3.388-23.027-9.539
			c-8.996-8.996-23.864-49.208-33.602-79.655C157.549,230.689,197.762,245.558,206.758,254.554z M496.97,218.521H165.755
			c-0.24,0-17.863-6.074-25.255-8.517c7.38-2.439,24.78-8.517,24.921-8.517h86.505c4.15,0,7.515-3.364,7.515-7.515
			s-3.364-7.515-7.515-7.515h-51.31c7.36-4.008,13.328-7.683,16.77-11.126c8.989-8.99,13.94-20.815,13.94-33.529
			c0-7.251-1.616-14.463-4.668-20.475h262.297v65.129H283.655c-4.151,0-7.515,3.364-7.515,7.515s3.364,7.515,7.515,7.515H496.97
			V218.521z"/>
	</g>
</g>
<g>
</g>
<g>
</g>
<g>
</g>
<g>
</g>
<g>
</g>
<g>
</g>
<g>
</g>
<g>
</g>
<g>
</g>
<g>
</g>
<g>
</g>
<g>
</g>
<g>
</g>
<g>
</g>
<g>
</g>
</svg>
